<svg width="30" height="55" viewBox="0 0 30 55" version="1.1" xmlns="http://www.w3.org/2000/svg" xmlns:xlink="http://www.w3.org/1999/xlink">
<title>facebook-logo</title>
<desc>Created using Figma</desc>
<g id="Canvas" transform="translate(-28702 4794)">
<g id="facebook-logo">
<g id="Group">
<g id="Vector">
<use xlink:href="#path0_fill" transform="translate(28702 -4794)" fill="#FFFFFF"/>
</g>
</g>
</g>
</g>
<defs>
<path id="path0_fill" d="M 28.8703 0.0114437L 21.6747 0C 13.5906 0 8.36633 5.31272 8.36633 13.5356L 8.36633 19.7764L 1.13144 19.7764C 0.506264 19.7764 -1.93785e-07 20.2788 -1.93785e-07 20.8984L -1.93785e-07 29.9406C -1.93785e-07 30.5603 0.506841 31.0621 1.13144 31.0621L 8.36633 31.0621L 8.36633 53.8785C 8.36633 54.4982 8.8726 55 9.49778 55L 18.9372 55C 19.5624 55 20.0687 54.4976 20.0687 53.8785L 20.0687 31.0621L 28.528 31.0621C 29.1531 31.0621 29.6594 30.5603 29.6594 29.9406L 29.6629 20.8984C 29.6629 20.6009 29.5434 20.3159 29.3315 20.1054C 29.1197 19.8948 28.831 19.7764 28.5309 19.7764L 20.0687 19.7764L 20.0687 14.486C 20.0687 11.9432 20.68 10.6523 24.0218 10.6523L 28.8691 10.6506C 29.4937 10.6506 30 10.1482 30 9.52914L 30 1.13292C 30 0.514393 29.4943 0.012588 28.8703 0.0114437Z"/>
</defs>
</svg>
