<?xml version="1.0" encoding="iso-8859-1"?>
<!-- Generator: Adobe Illustrator 21.1.0, SVG Export Plug-In . SVG Version: 6.00 Build 0)  -->
<svg xmlns="http://www.w3.org/2000/svg" xmlns:xlink="http://www.w3.org/1999/xlink" version="1.1" id="Layer_1_1_" x="0px" y="0px" viewBox="0 0 48 48" style="enable-background:new 0 0 48 48;" xml:space="preserve" width="32px" height="32px">
<path style="fill:#FF3D00;" d="M21.804,10.111L10.185,3.56C9.516,3.18,8.983,3,8.209,3C6.884,3,6,3.875,6,5.406v37.188  C6,44.125,6.884,45,8.209,45c0.773,0,1.307-0.18,1.976-0.56l9.358-5.276l0.031-1.975l17.899-10.444l2.14,1.102l2.785-1.57  C43.287,25.773,44,25.094,44,24s-0.713-1.775-1.603-2.279l-3.699-2.096L21.804,10.111z"/>
<path style="fill:#FFD600;" d="M19.543,39.164l7.448-4.199l4.036-2.276l8.586-4.841C39.855,26.768,40,25.653,40,24.5  C40,15.94,33.06,9,24.5,9C16.403,9,9.756,15.209,9.06,23.125C9.02,23.578,9,24.037,9,24.5C9,31.323,13.418,37.094,19.543,39.164z"/>
<circle id="XMLID_7_" style="fill:#FF8F00;" cx="24.5" cy="24.5" r="9.5"/>
<path id="XMLID_4_" style="fill:#FFFFFF;" d="M24.35,19v5.871c-0.335-0.191-0.718-0.31-1.125-0.31c-1.244,0-2.225,1.002-2.225,2.22  c0,1.241,1.005,2.22,2.225,2.22c1.244,0,2.321-1.002,2.321-2.22v-5.394H27.7V19H24.35z"/>
</svg>
