<svg width="54" height="54" viewBox="0 0 54 54" version="1.1" xmlns="http://www.w3.org/2000/svg" xmlns:xlink="http://www.w3.org/1999/xlink">
<title>instagram-logo</title>
<desc>Created using Figma</desc>
<g id="Canvas" transform="translate(-28762 4921)">
<g id="instagram-logo">
<g id="Group">
<g id="Vector">
<use xlink:href="#path0_fill" transform="translate(28762 -4921)" fill="#0CD9FF"/>
</g>
<g id="Vector">
<use xlink:href="#path1_fill" transform="translate(28775.1 -4907.91)" fill="#0CD9FF"/>
</g>
<g id="Vector">
<use xlink:href="#path2_fill" transform="translate(28800 -4911.98)" fill="#0CD9FF"/>
</g>
</g>
</g>
</g>
<defs>
<path id="path0_fill" d="M 39.0976 0L 14.9017 0C 6.68492 0 0 6.68524 0 14.902L 0 39.098C 0 47.3151 6.68492 54 14.9017 54L 39.0976 54C 47.3151 54 54 47.3148 54 39.098L 54 14.902C 54.0003 6.68524 47.3151 0 39.0976 0ZM 49.2092 39.098C 49.2092 44.6732 44.6732 49.2089 39.098 49.2089L 14.9017 49.2089C 9.32676 49.2092 4.79114 44.6732 4.79114 39.098L 4.79114 14.902C 4.79114 9.32708 9.32676 4.79114 14.9017 4.79114L 39.0976 4.79114C 44.6729 4.79114 49.2089 9.32708 49.2089 14.902L 49.2089 39.098L 49.2092 39.098Z"/>
<path id="path1_fill" d="M 13.9144 3.89904e-07C 6.2419 3.89904e-07 -4.77633e-07 6.2419 -4.77633e-07 13.9144C -4.77633e-07 21.5866 6.2419 27.8282 13.9144 27.8282C 21.587 27.8282 27.8289 21.5866 27.8289 13.9144C 27.8289 6.2419 21.587 3.89904e-07 13.9144 3.89904e-07ZM 13.9144 23.0368C 8.88405 23.0368 4.79114 18.9445 4.79114 13.9141C 4.79114 8.88341 8.88374 4.79082 13.9144 4.79082C 18.9451 4.79082 23.0377 8.88341 23.0377 13.9141C 23.0377 18.9445 18.9448 23.0368 13.9144 23.0368Z"/>
<path id="path2_fill" d="M 3.51351 -1.75457e-07C 2.59041 -1.75457e-07 1.68361 0.373709 1.03169 1.0285C 0.376584 1.68009 -7.60313e-07 2.58722 -7.60313e-07 3.5135C -7.60313e-07 4.43692 0.376903 5.34372 1.03169 5.99851C 1.68329 6.6501 2.59041 7.02701 3.51351 7.02701C 4.43979 7.02701 5.34372 6.6501 5.99851 5.99851C 6.6533 5.34372 7.02701 4.4366 7.02701 3.5135C 7.02701 2.58722 6.6533 1.68009 5.99851 1.0285C 5.34692 0.373709 4.43979 -1.75457e-07 3.51351 -1.75457e-07Z"/>
</defs>
</svg>
