<?xml version="1.0" encoding="UTF-8"?>
<!DOCTYPE svg PUBLIC "-//W3C//DTD SVG 1.1//EN" "http://www.w3.org/Graphics/SVG/1.1/DTD/svg11.dtd">
<!-- Creator: CorelDRAW 2017 -->
<svg xmlns="http://www.w3.org/2000/svg" xml:space="preserve" width="0.601823in" height="0.592339in" version="1.1" style="shape-rendering:geometricPrecision; text-rendering:geometricPrecision; image-rendering:optimizeQuality; fill-rule:evenodd; clip-rule:evenodd"
viewBox="0 0 150.19 147.82"
 xmlns:xlink="http://www.w3.org/1999/xlink">
 <defs>
  <style type="text/css">
   <![CDATA[
    .str0 {stroke:#1D354D;stroke-width:8.32;stroke-linecap:round;stroke-linejoin:round;stroke-miterlimit:10}
    .str1 {stroke:#FFC300;stroke-width:8.32;stroke-linecap:round;stroke-linejoin:round;stroke-miterlimit:10}
    .fil0 {fill:none;fill-rule:nonzero}
   ]]>
  </style>
 </defs>
 <g id="Layer_x0020_1">
  <metadata id="CorelCorpID_0Corel-Layer"/>
  <g id="_1591531360704">
   <line class="fil0 str0" x1="122.59" y1="22.46" x2="146.03" y2= "22.46" />
   <line class="fil0 str0" x1="4.16" y1="22.46" x2="85.99" y2= "22.46" />
   <line class="fil0 str0" x1="114.81" y1="40.76" x2="93.78" y2= "40.76" />
   <path class="fil0 str0" d="M93.78 40.76c-4.28,0 -7.79,-3.5 -7.79,-7.79"/>
   <line class="fil0 str0" x1="85.99" y1="32.98" x2="85.99" y2= "11.95" />
   <path class="fil0 str0" d="M85.99 11.95c0,-4.28 3.5,-7.79 7.79,-7.79"/>
   <line class="fil0 str0" x1="93.78" y1="4.16" x2="114.81" y2= "4.16" />
   <path class="fil0 str0" d="M114.81 4.16c4.28,0 7.79,3.5 7.79,7.79"/>
   <line class="fil0 str0" x1="122.59" y1="11.95" x2="122.59" y2= "32.98" />
   <path class="fil0 str0" d="M122.59 32.98c0,4.28 -3.5,7.79 -7.79,7.79"/>
   <line class="fil0 str0" x1="122.59" y1="125.36" x2="146.03" y2= "125.36" />
   <line class="fil0 str0" x1="4.16" y1="125.36" x2="85.99" y2= "125.36" />
   <line class="fil0 str0" x1="115.59" y1="143.66" x2="93" y2= "143.66" />
   <path class="fil0 str0" d="M93 143.66c-3.85,0 -7.01,-3.15 -7.01,-7.01"/>
   <line class="fil0 str0" x1="85.99" y1="136.65" x2="85.99" y2= "114.07" />
   <path class="fil0 str0" d="M85.99 114.07c0,-3.85 3.15,-7.01 7.01,-7.01"/>
   <line class="fil0 str0" x1="93" y1="107.06" x2="115.59" y2= "107.06" />
   <path class="fil0 str0" d="M115.59 107.06c3.85,0 7.01,3.15 7.01,7.01"/>
   <line class="fil0 str0" x1="122.59" y1="114.07" x2="122.59" y2= "136.65" />
   <path class="fil0 str0" d="M122.59 136.65c0,3.85 -3.15,7.01 -7.01,7.01"/>
   <line class="fil0 str0" x1="26.82" y1="73.91" x2="4.16" y2= "73.91" />
   <line class="fil0 str0" x1="146.03" y1="73.91" x2="64.98" y2= "73.91" />
   <line class="fil0 str1" x1="34.6" y1="92.21" x2="57.19" y2= "92.21" />
   <path class="fil0 str1" d="M57.19 92.21c3.85,0 7.01,-3.15 7.01,-7.01"/>
   <line class="fil0 str1" x1="64.2" y1="85.2" x2="64.2" y2= "62.62" />
   <path class="fil0 str1" d="M64.2 62.62c0,-3.85 -3.15,-7.01 -7.01,-7.01"/>
   <line class="fil0 str1" x1="57.19" y1="55.61" x2="34.6" y2= "55.61" />
   <path class="fil0 str1" d="M34.6 55.61c-3.85,0 -7.01,3.15 -7.01,7.01"/>
   <line class="fil0 str1" x1="27.59" y1="62.62" x2="27.59" y2= "85.2" />
   <path class="fil0 str1" d="M27.59 85.2c0,3.85 3.15,7.01 7.01,7.01"/>
  </g>
 </g>
</svg>
