<?xml version="1.0" encoding="UTF-8"?>
<!DOCTYPE svg PUBLIC "-//W3C//DTD SVG 1.1//EN" "http://www.w3.org/Graphics/SVG/1.1/DTD/svg11.dtd">
<!-- Creator: CorelDRAW 2017 -->
<svg xmlns="http://www.w3.org/2000/svg" xml:space="preserve" width="0.734799in" height="0.592339in" version="1.1" style="shape-rendering:geometricPrecision; text-rendering:geometricPrecision; image-rendering:optimizeQuality; fill-rule:evenodd; clip-rule:evenodd"
viewBox="0 0 212.19 171.05"
 xmlns:xlink="http://www.w3.org/1999/xlink">
 <defs>
  <style type="text/css">
   <![CDATA[
    .str0 {stroke:#1D354D;stroke-width:9.63;stroke-linecap:round;stroke-linejoin:round;stroke-miterlimit:10}
    .str1 {stroke:#FFC300;stroke-width:9.63;stroke-linecap:round;stroke-linejoin:round;stroke-miterlimit:10}
    .fil0 {fill:none}
    .fil1 {fill:none;fill-rule:nonzero}
   ]]>
  </style>
 </defs>
 <g id="Layer_x0020_1">
  <metadata id="CorelCorpID_0Corel-Layer"/>
  <rect class="fil0" y="0.85" width="212.19" height="169.36"/>
  <g id="_1627770320640">
   <line class="fil1 str0" x1="161.06" y1="25.99" x2="188.18" y2= "25.99" />
   <line class="fil1 str0" x1="24.01" y1="25.99" x2="118.71" y2= "25.99" />
   <line class="fil1 str0" x1="152.05" y1="47.17" x2="127.72" y2= "47.17" />
   <path class="fil1 str0" d="M127.72 47.17c-4.96,0 -9.01,-4.05 -9.01,-9.01"/>
   <line class="fil1 str0" x1="118.71" y1="38.16" x2="118.71" y2= "13.82" />
   <path class="fil1 str0" d="M118.71 13.82c0,-4.96 4.05,-9.01 9.01,-9.01"/>
   <line class="fil1 str0" x1="127.72" y1="4.81" x2="152.05" y2= "4.81" />
   <path class="fil1 str0" d="M152.05 4.81c4.95,0 9.01,4.05 9.01,9.01"/>
   <line class="fil1 str0" x1="161.06" y1="13.82" x2="161.06" y2= "38.16" />
   <path class="fil1 str0" d="M161.06 38.16c0,4.96 -4.05,9.01 -9.01,9.01"/>
   <line class="fil1 str0" x1="161.06" y1="145.06" x2="188.18" y2= "145.06" />
   <line class="fil1 str0" x1="24.01" y1="145.06" x2="118.71" y2= "145.06" />
   <line class="fil1 str0" x1="152.95" y1="166.24" x2="126.81" y2= "166.24" />
   <path class="fil1 str0" d="M126.81 166.24c-4.46,0 -8.11,-3.65 -8.11,-8.11"/>
   <line class="fil1 str0" x1="118.71" y1="158.13" x2="118.71" y2= "131.99" />
   <path class="fil1 str0" d="M118.71 131.99c0,-4.46 3.65,-8.11 8.11,-8.11"/>
   <line class="fil1 str0" x1="126.81" y1="123.89" x2="152.95" y2= "123.89" />
   <path class="fil1 str0" d="M152.95 123.89c4.46,0 8.11,3.65 8.11,8.11"/>
   <line class="fil1 str0" x1="161.06" y1="131.99" x2="161.06" y2= "158.13" />
   <path class="fil1 str0" d="M161.06 158.13c0,4.46 -3.65,8.11 -8.11,8.11"/>
   <line class="fil1 str0" x1="50.23" y1="85.53" x2="24.01" y2= "85.53" />
   <line class="fil1 str0" x1="188.18" y1="85.53" x2="94.39" y2= "85.53" />
   <line class="fil1 str1" x1="59.24" y1="106.7" x2="85.38" y2= "106.7" />
   <path class="fil1 str1" d="M85.38 106.7c4.46,0 8.11,-3.65 8.11,-8.11"/>
   <line class="fil1 str1" x1="93.49" y1="98.59" x2="93.49" y2= "72.46" />
   <path class="fil1 str1" d="M93.49 72.46c0,-4.46 -3.65,-8.11 -8.11,-8.11"/>
   <line class="fil1 str1" x1="85.38" y1="64.35" x2="59.24" y2= "64.35" />
   <path class="fil1 str1" d="M59.24 64.35c-4.46,0 -8.11,3.65 -8.11,8.11"/>
   <line class="fil1 str1" x1="51.13" y1="72.46" x2="51.13" y2= "98.59" />
   <path class="fil1 str1" d="M51.13 98.59c0,4.46 3.65,8.11 8.11,8.11"/>
  </g>
 </g>
</svg>
