<?xml version="1.0" encoding="UTF-8"?>
<!DOCTYPE svg PUBLIC "-//W3C//DTD SVG 1.1//EN" "http://www.w3.org/Graphics/SVG/1.1/DTD/svg11.dtd">
<!-- Creator: CorelDRAW 2017 -->
<svg xmlns="http://www.w3.org/2000/svg" xml:space="preserve" width="10.4167in" height="6.94441in" version="1.1" style="shape-rendering:geometricPrecision; text-rendering:geometricPrecision; image-rendering:optimizeQuality; fill-rule:evenodd; clip-rule:evenodd"
viewBox="0 0 11530.12 7686.71"
 xmlns:xlink="http://www.w3.org/1999/xlink">
 <defs>
  <style type="text/css">
   <![CDATA[
    .fil28 {fill:url(#id0)}
    .fil29 {fill:url(#id1)}
    .fil26 {fill:url(#id2)}
    .fil22 {fill:url(#id3)}
    .fil24 {fill:url(#id4)}
    .fil25 {fill:url(#id5)}
    .fil33 {fill:url(#id6)}
    .fil13 {fill:url(#id7)}
    .fil32 {fill:url(#id8)}
    .fil8 {fill:url(#id9)}
    .fil31 {fill:url(#id10)}
    .fil12 {fill:url(#id11)}
    .fil10 {fill:url(#id12)}
    .fil27 {fill:url(#id13)}
    .fil18 {fill:url(#id14)}
    .fil36 {fill:url(#id15)}
    .fil30 {fill:url(#id16)}
    .fil6 {fill:url(#id17)}
    .fil21 {fill:url(#id18)}
    .fil23 {fill:url(#id19)}
    .fil11 {fill:url(#id20)}
    .fil17 {fill:url(#id21)}
    .fil14 {fill:url(#id22)}
    .fil19 {fill:url(#id23)}
    .fil1 {fill:url(#id24)}
    .fil4 {fill:url(#id25)}
    .fil2 {fill:url(#id26)}
    .fil3 {fill:url(#id27)}
    .fil5 {fill:url(#id28)}
    .fil7 {fill:url(#id29)}
    .fil0 {fill:url(#id30)}
    .fil35 {fill:url(#id31)}
    .fil20 {fill:url(#id32)}
    .fil9 {fill:url(#id33)}
    .fil16 {fill:url(#id34)}
    .fil15 {fill:url(#id35)}
    .fil37 {fill:url(#id36)}
    .fil34 {fill:url(#id37)}
   ]]>
  </style>
  <linearGradient id="id0" gradientUnits="userSpaceOnUse" x1="9864.85" y1="3962.27" x2="9922.12" y2="3920.32">
   <stop offset="0" style="stop-opacity:1; stop-color:#585757"/>
   <stop offset="1" style="stop-opacity:1; stop-color:#373737"/>
  </linearGradient>
  <linearGradient id="id1" gradientUnits="userSpaceOnUse" xlink:href="#id0" x1="9913.03" y1="4085.18" x2="9970.31" y2="4043.24">
  </linearGradient>
  <linearGradient id="id2" gradientUnits="userSpaceOnUse" xlink:href="#id0" x1="2395.75" y1="3213.05" x2="2739.76" y2="3213.05">
  </linearGradient>
  <linearGradient id="id3" gradientUnits="userSpaceOnUse" xlink:href="#id0" x1="9424.79" y1="5202.91" x2="9538.25" y2="4717.15">
  </linearGradient>
  <linearGradient id="id4" gradientUnits="userSpaceOnUse" xlink:href="#id0" x1="9267.53" y1="885.06" x2="10178.44" y2="885.06">
  </linearGradient>
  <linearGradient id="id5" gradientUnits="userSpaceOnUse" xlink:href="#id0" x1="7962.54" y1="3208.97" x2="8441.8" y2="3208.97">
  </linearGradient>
  <linearGradient id="id6" gradientUnits="userSpaceOnUse" xlink:href="#id0" x1="5900.55" y1="5898.42" x2="6820.41" y2="5898.42">
  </linearGradient>
  <linearGradient id="id7" gradientUnits="userSpaceOnUse" xlink:href="#id0" x1="8929.35" y1="2254.35" x2="9152.28" y2="2254.35">
  </linearGradient>
  <linearGradient id="id8" gradientUnits="userSpaceOnUse" xlink:href="#id0" x1="4439.95" y1="5851.21" x2="5176.49" y2="6079.66">
  </linearGradient>
  <linearGradient id="id9" gradientUnits="userSpaceOnUse" xlink:href="#id0" x1="7733.32" y1="4742.7" x2="7926.72" y2="4742.7">
  </linearGradient>
  <linearGradient id="id10" gradientUnits="userSpaceOnUse" xlink:href="#id0" x1="10144.05" y1="1778.37" x2="10917.97" y2="1778.37">
  </linearGradient>
  <linearGradient id="id11" gradientUnits="userSpaceOnUse" xlink:href="#id0" x1="10945.31" y1="422.75" x2="11138.57" y2="422.75">
  </linearGradient>
  <linearGradient id="id12" gradientUnits="userSpaceOnUse" x1="6.66" y1="4179.31" x2="11168.54" y2="4179.31">
   <stop offset="0" style="stop-opacity:1; stop-color:#4C4C4C"/>
   <stop offset="0.188235" style="stop-opacity:1; stop-color:#4C4C4C"/>
   <stop offset="0.309804" style="stop-opacity:1; stop-color:#878889"/>
   <stop offset="0.470588" style="stop-opacity:1; stop-color:#555656"/>
   <stop offset="0.611765" style="stop-opacity:1; stop-color:#878889"/>
   <stop offset="0.701961" style="stop-opacity:1; stop-color:#555656"/>
   <stop offset="0.870588" style="stop-opacity:1; stop-color:#3E3E3E"/>
   <stop offset="1" style="stop-opacity:1; stop-color:#575757"/>
  </linearGradient>
  <linearGradient id="id13" gradientUnits="userSpaceOnUse" xlink:href="#id0" x1="9525.2" y1="4283.69" x2="9874.86" y2="4027.94">
  </linearGradient>
  <linearGradient id="id14" gradientUnits="userSpaceOnUse" xlink:href="#id12" x1="6.66" y1="3651.96" x2="11168.54" y2="3651.96">
  </linearGradient>
  <linearGradient id="id15" gradientUnits="userSpaceOnUse" xlink:href="#id0" x1="7577" y1="1388.63" x2="8617.81" y2="862.9">
  </linearGradient>
  <linearGradient id="id16" gradientUnits="userSpaceOnUse" xlink:href="#id0" x1="2876.99" y1="5536.16" x2="3106.72" y2="5406.22">
  </linearGradient>
  <linearGradient id="id17" gradientUnits="userSpaceOnUse" xlink:href="#id0" x1="837.73" y1="2325.69" x2="1701.19" y2="5537.98">
  </linearGradient>
  <linearGradient id="id18" gradientUnits="userSpaceOnUse" xlink:href="#id0" x1="8429.54" y1="5348.71" x2="8610.77" y2="5031.97">
  </linearGradient>
  <linearGradient id="id19" gradientUnits="userSpaceOnUse" xlink:href="#id0" x1="3582.76" y1="5056.25" x2="4089.47" y2="5056.25">
  </linearGradient>
  <linearGradient id="id20" gradientUnits="userSpaceOnUse" xlink:href="#id12" x1="6.66" y1="3919.84" x2="11168.54" y2="3919.84">
  </linearGradient>
  <linearGradient id="id21" gradientUnits="userSpaceOnUse" xlink:href="#id12" x1="6.66" y1="3919.84" x2="11168.54" y2="3919.84">
  </linearGradient>
  <linearGradient id="id22" gradientUnits="userSpaceOnUse" xlink:href="#id0" x1="2721.77" y1="3838.14" x2="3360.77" y2="3838.14">
  </linearGradient>
  <linearGradient id="id23" gradientUnits="userSpaceOnUse" xlink:href="#id12" x1="6.66" y1="3378.63" x2="11168.54" y2="3378.63">
  </linearGradient>
  <linearGradient id="id24" gradientUnits="userSpaceOnUse" x1="6.66" y1="4179.31" x2="11168.55" y2="4179.31">
   <stop offset="0" style="stop-opacity:1; stop-color:#4F4F50"/>
   <stop offset="0.188235" style="stop-opacity:1; stop-color:#4F4F50"/>
   <stop offset="0.309804" style="stop-opacity:1; stop-color:#969494"/>
   <stop offset="0.470588" style="stop-opacity:1; stop-color:#5B5C5B"/>
   <stop offset="0.611765" style="stop-opacity:1; stop-color:#969494"/>
   <stop offset="0.701961" style="stop-opacity:1; stop-color:#5B5C5B"/>
   <stop offset="0.870588" style="stop-opacity:1; stop-color:#424242"/>
   <stop offset="1" style="stop-opacity:1; stop-color:#5C5D5C"/>
  </linearGradient>
  <linearGradient id="id25" gradientUnits="userSpaceOnUse" xlink:href="#id24" x1="6.66" y1="3378.63" x2="11168.55" y2="3378.63">
  </linearGradient>
  <linearGradient id="id26" gradientUnits="userSpaceOnUse" xlink:href="#id24" x1="6.66" y1="3919.84" x2="11168.55" y2="3919.84">
  </linearGradient>
  <linearGradient id="id27" gradientUnits="userSpaceOnUse" xlink:href="#id24" x1="6.66" y1="3651.96" x2="11168.55" y2="3651.96">
  </linearGradient>
  <linearGradient id="id28" gradientUnits="userSpaceOnUse" xlink:href="#id24" x1="6.66" y1="3105.14" x2="11168.55" y2="3105.14">
  </linearGradient>
  <linearGradient id="id29" gradientUnits="userSpaceOnUse" xlink:href="#id0" x1="7641.21" y1="6309.16" x2="8047.89" y2="5946.4">
  </linearGradient>
  <radialGradient id="id30" gradientUnits="userSpaceOnUse" gradientTransform="matrix(1.31746 -0 -0 -1.31746 -1830 8907)" cx="5765.06" cy="3843.35" r="5765.06" fx="5765.06" fy="3843.35">
   <stop offset="0" style="stop-opacity:1; stop-color:#FEFEFE"/>
   <stop offset="1" style="stop-opacity:1; stop-color:#DFE3EF"/>
  </radialGradient>
  <radialGradient id="id31" gradientUnits="userSpaceOnUse" gradientTransform="matrix(27.818 -0 -0 -27.8176 -156598 110795)" cx="5839.28" cy="3844.71" r="273.04" fx="5839.28" fy="3844.71">
   <stop offset="0" style="stop-opacity:1; stop-color:#E8E9E8"/>
   <stop offset="1" style="stop-opacity:1; stop-color:#CDCFDA"/>
  </radialGradient>
  <radialGradient id="id32" gradientUnits="userSpaceOnUse" gradientTransform="matrix(22.4993 -0 -0 -22.4991 -127352 90350)" xlink:href="#id31" cx="5923.57" cy="3844.82" r="337.58" fx="5923.57" fy="3844.82">
  </radialGradient>
  <radialGradient id="id33" gradientUnits="userSpaceOnUse" gradientTransform="matrix(34.044 -0 -0 -34.044 -191400 134643)" xlink:href="#id31" cx="5792.26" cy="3842.12" r="223.1" fx="5792.26" fy="3842.12">
  </radialGradient>
  <radialGradient id="id34" gradientUnits="userSpaceOnUse" gradientTransform="matrix(22.6506 -0 -0 -22.6504 -125981 90880)" xlink:href="#id31" cx="5818.8" cy="3842.64" r="335.32" fx="5818.8" fy="3842.64">
  </radialGradient>
  <radialGradient id="id35" gradientUnits="userSpaceOnUse" gradientTransform="matrix(22.499 -0 -0 -22.499 -121742 90334)" xlink:href="#id31" cx="5662.67" cy="3844.18" r="337.58" fx="5662.67" fy="3844.18">
  </radialGradient>
  <radialGradient id="id36" gradientUnits="userSpaceOnUse" gradientTransform="matrix(23.8764 -0 -0 -23.8763 -132064 95642)" xlink:href="#id31" cx="5772.95" cy="3844.71" r="318.11" fx="5772.95" fy="3844.71">
  </radialGradient>
  <radialGradient id="id37" gradientUnits="userSpaceOnUse" gradientTransform="matrix(25.1625 -0 -0 -25.1627 -137695 100612)" xlink:href="#id31" cx="5698.69" cy="3845.63" r="301.85" fx="5698.69" fy="3845.63">
  </radialGradient>
 </defs>
 <g id="Layer_x0020_1">
  <metadata id="CorelCorpID_0Corel-Layer"/>
  <path class="fil0" d="M11530.12 7686.71l-11530.12 0 0 -1851.19c58.16,-137.33 135.21,-266.33 232.71,-383.28 168.96,-202.67 391.89,-353.52 630.07,-463.28 433.87,-199.92 926.27,-267.56 1400.46,-268.99 2.83,-0.01 5.66,-0.01 8.47,-0.01 314.12,0 619.41,52.27 922.11,126.4 29.04,34.02 58.14,67.97 87.37,101.82 481.64,557.98 1007.9,1100.57 1683.92,1418.88 338.11,159.2 709.9,252.69 1080.46,294.76 108.74,12.35 218.31,18.91 327.8,18.91 207.94,0 415.71,-23.65 616.95,-76.13l-70.87 278.12 -0.15 0.66c-0.62,2.44 -4,5.23 -4.61,7.62l-4.46 11.81 11.53 0.25c0,0 3.69,-0.37 9.84,-0.37 20.29,0 58.73,-1.29 92.39,-14.27 52.12,-20.03 89.32,-67.93 83.94,-107.62 -3.38,-24.99 -25.98,-41.13 -57.65,-41.13 -17.83,0 -36.28,5.09 -53.19,14.8 -12.61,7.21 -23.06,13.81 -32.28,24.09l48.27 -180.02c21.37,-5.84 42.74,-12 64.11,-18.49 26.44,-8.13 52.73,-16.8 78.71,-26.04 162.34,-18.25 320.85,-54.12 470.74,-112.45 80.55,-8.1 160.65,-20.4 239.83,-37.54 79.94,-17.31 157.88,-40.88 232.6,-70.72 176.49,-15.13 348.67,-50.87 506.25,-116.82 251.82,-21.41 499.94,-84.68 708.1,-227.73 314.24,-215.98 449.83,-603.19 446.6,-972.77 -4.15,-482.71 -306.85,-859.67 -642.91,-1175.38 -161.27,-151.55 -333.76,-292.83 -502.72,-437.46 62.57,-274.67 168.19,-535.57 339.6,-767.69 418.47,-566.22 1055.08,-889.29 1755.03,-915.95 35.66,-1.36 71.18,-2.03 106.85,-2.03 240.29,0 479.35,30.39 714.25,83.69l0 5885.57zm-11530.12 -1851.19l0 -33.69 0 33.69zm0 -33.69l0 -622.49c352.3,-553 988.12,-774.76 1638.02,-774.76 354.36,0 712.78,65.85 1032.03,179.84 150.51,53.75 299.57,111.64 447.55,172.3 11.5,13.56 22.98,27.09 34.5,40.63 -8.27,-2 -16.52,-4 -24.8,-5.96 -299.17,-71.43 -595.6,-108.38 -898.62,-108.38 -78.88,0 -158.19,2.51 -238.14,7.55 -496.82,31.41 -1010.81,146.06 -1428.37,428.25 -255.78,172.84 -445.2,409.18 -562.18,683.03zm0 -622.49l0 -39.62 0 39.62zm0 -39.62l0 -654.3c183.97,-183.58 405.21,-323.15 656.88,-406.03 186.19,-61.33 381.71,-87.8 577.41,-87.8 122.17,0 244.38,10.32 364.52,28.89 535.17,82.82 996.4,364.17 1446.75,651.13 8.82,10.44 17.65,20.86 26.47,31.3 -87.68,-36.33 -175.75,-71.72 -264.33,-105.78 -231.6,-89.07 -465.03,-164.22 -710.76,-201.75 -149.91,-22.89 -304.1,-35.43 -458.67,-35.43 -389.09,0 -781,79.43 -1116.51,273.25 -215.8,124.66 -391.46,299.71 -521.76,506.52zm0 -654.3l0 -37.8 0 37.8zm0 -37.8l0 -673.71c287.85,-166.17 606.32,-263.74 943.07,-263.74 20.59,0 41.22,0.35 61.94,1.09 391.81,13.93 766.66,165.24 1094.73,372.42 306.76,193.74 577.75,446.26 850.76,683.68 8.75,7.61 17.5,15.22 26.26,22.83 1.66,1.98 3.33,3.97 5.01,5.94 -1.49,-0.92 -2.97,-1.85 -4.46,-2.77 -265.41,-164.79 -532.15,-339 -822.54,-456.96 -287.88,-116.93 -600.48,-183.08 -912.21,-183.08 -95.5,0 -190.84,6.21 -285.45,19.05 -368.35,50.04 -698.9,218.82 -957.13,475.27zm0 -673.71l0 -39.74 0 39.74zm0 -39.74l0 -683.67c208.62,-58.34 422.66,-94.27 638.55,-94.27 82.68,0 165.6,5.26 248.64,16.56 322.4,43.86 618.35,187.86 879.78,377.04 291.34,210.81 541.21,475.76 780.28,742.6 103.49,115.48 204.73,232.94 305.2,351.05 -80.89,-69.89 -162.04,-139.51 -243.64,-208.46 -291.05,-245.96 -591.25,-472.25 -947.14,-616.33 -233.97,-94.75 -482.19,-145.45 -731.32,-145.45 -142.51,0 -285.29,16.57 -425.95,51 -178.1,43.57 -346.72,117.33 -504.39,209.95zm0 -683.67l0 -39.11 0 39.11zm0 -39.11l0 -3011.39 10394.32 0c-134.36,13.68 -268.26,31.13 -401.55,52.61 -314.54,50.67 -652.76,131.61 -970.53,256.91 13.68,-47.35 -4.46,-99.71 -68.41,-117.18 -90.86,-24.84 -118.22,-110.32 -118.22,-110.89l-1.08 -4 -21.99 9.66 47.66 291.05c-550.37,250.7 -1012.65,649.41 -1139.33,1275.8 -39.36,194.47 -44.43,400.66 -3.08,595.22 49.04,231.33 170.8,439.31 317.15,622.23 7.53,9.44 15.22,18.8 22.91,28.1 20.14,49.73 42.74,98.94 67.95,147.63 42.43,82.14 90.09,160.96 141.13,237.46 44.73,147.51 104.38,290.45 169.42,431.01 23.21,157.17 54.57,313.47 85.17,469.6 -0.16,2.55 -0.31,5.13 -0.46,7.69 -23.21,407.26 -50.73,818.22 -206.62,1200.1 -115.61,283.05 -301.78,542.99 -530.85,748.47 -512.7,-70.78 -1016.3,-207.34 -1511.15,-355.5 -561.16,-167.97 -1114.83,-359.84 -1669.96,-546.47 -362.45,-121.85 -725.92,-244.51 -1094.3,-348.5 -61.37,-27.26 -122.79,-54.3 -184.38,-81.06 -58.53,-36.67 -117.06,-73.38 -175.59,-110.01 -58.28,-50.5 -116.52,-101.11 -174.74,-151.63 -236.57,-280.26 -473.86,-559.78 -731.83,-820.73 -239.2,-241.94 -502.07,-466.52 -807.37,-620.63 -253.68,-128.04 -530.66,-189.31 -812.18,-189.31 -48.4,0 -96.9,1.82 -145.46,5.41 -161.51,11.94 -320.83,44.04 -476.63,88.35zm10394.32 -3011.39l710.87 0 -710.87 0zm710.87 0l142.51 0c94.24,0.81 188.33,3.24 282.41,7.21l0 435.21c-199.85,-17.64 -401.25,-27.34 -602.95,-27.34 -421.39,0 -843.23,42.31 -1251.4,142.85 -530.38,130.67 -1056.01,379.51 -1397.3,819.79 -198.78,256.48 -324.99,578.21 -333.76,903.98 20.29,-540.83 388.95,-1031.38 837.39,-1318.29 494.57,-316.52 1096.13,-443.58 1674.02,-490.21 163.27,-13.17 327.3,-19.54 491.34,-19.54 194.47,0 388.95,8.93 582.66,26.04l0 421.33c-18.14,-2.46 -36.44,-4.85 -54.58,-7.13 -221.69,-27.99 -447.21,-43.95 -672.9,-43.95 -410.32,0 -820.79,52.76 -1209.12,181.8 -571.58,189.96 -1087.06,586.06 -1308.13,1160.65 -102.08,265.21 -122.68,555.45 -78.25,834.69 -52.88,-54.93 -104.08,-111.58 -152.81,-170.55 -36.74,-90.35 -66.1,-184.28 -86.09,-282.89 -9.69,-47.96 -16.3,-95.7 -20.29,-143.22 -3.23,-46 -4.31,-92.52 -3.38,-139.59 0,-3.06 0.15,-6.09 0.15,-9.13 -1.84,49.17 -0.77,98.84 3.23,148.72 9.69,136.62 37.66,268.63 82.71,396.91 -7.53,-9.41 -15.07,-18.9 -22.45,-28.43 -144.66,-185.64 -255.2,-397.39 -298.86,-629.94 -48.12,-256.68 2.15,-531.7 100.54,-771.24 180.02,-438.7 563.9,-746.65 980.52,-949.44 24.91,-12.19 50.12,-24.04 75.49,-35.59l22.6 137.73c-10.3,-5.49 -22.29,-8.27 -35.21,-8.27 -14.76,0 -30.75,3.58 -47.2,10.85 -57.04,25.12 -96.24,89.06 -87.78,142.1 5.84,37.26 33.52,57.49 69.18,57.49 15.07,0 31.52,-3.61 48.43,-11.08 102.08,-44.98 95.16,-147.83 95.16,-147.83l-33.52 -195.24c32.28,-14.25 64.72,-27.99 97.31,-41.25 -0.29,0.63 -0.58,1 -0.61,1.04l-0 0 0 -0c0.46,-0.44 0.92,-0.89 1.22,-1.33 435.22,-176.75 906.72,-266.47 1371.31,-315.48 245.05,-25.84 491.64,-39.28 738.39,-41.43zm142.51 0l282.41 0 -282.41 0zm-4316.1 6902.68l0 0zm-3430.66 -630.76c-12.73,0 -26.61,4.72 -39.6,14.69 -31.7,24.34 -46.67,69.7 -33.36,101.48 7.97,18.99 24.69,29.24 43.63,29.24 12.78,0 26.53,-4.66 39.31,-14.46 31.3,-24.06 45.44,-68.35 35.13,-99.22l-0.68 0.52 -1.35 -1.06 -0.71 -1.71 -0.42 -1 -104.02 -246 160.67 -161.3 88.43 208.49c-3.73,-0.95 -7.66,-1.43 -11.7,-1.43 -12.74,0 -26.64,4.83 -39.72,14.87 -31.69,24.35 -46.59,69.81 -33.27,101.6 7.52,17.95 21.92,26.92 38.74,26.92 12.96,0 27.34,-5.31 41.12,-15.9 31.32,-24.08 47.6,-65.32 32.1,-102.95l0 -0.03 -0.49 1.95 -125.08 -302.5 0.66 -0.51 -4.86 -9.98 -190.08 182.81 15.34 35.91 102.16 241.02c-3.81,-0.98 -7.83,-1.47 -11.96,-1.47zm2330.67 -1090.81l77.2 370.7 -0.06 0.05 0.21 4.27 245.07 -162.31 -9.78 -44.45 -60.03 -285.52c7.04,3.34 15.03,5.07 23.62,5.07 11.07,0 23.09,-2.89 35.28,-8.93 39.79,-19.75 66.69,-63.54 58.97,-101.07 -5.23,-25.41 -24.16,-39.02 -48.18,-39.02 -11.46,0 -24.06,3.09 -36.92,9.47 -39.34,19.52 -67.03,60.03 -56.43,107.78l-0.61 0.32 -9.89 -7.01 -8.13 -1.17 68.12 289.12 -206.08 141.05 -49.81 -246.53c7.07,3.36 15.33,5.12 24.18,5.12 11.3,0 23.6,-2.86 35.71,-8.87 39.79,-19.75 66.29,-66.2 58.57,-103.71 -5.18,-25.32 -23.89,-38.76 -47.74,-38.76 -11.5,0 -24.19,3.14 -37.15,9.56 -39.34,19.53 -64.88,63.71 -57.31,105.4l1.19 -0.58zm210.32 -151.8l-0.15 -0.63 0 0.61 0.15 0.01zm-1570.11 -274.81c-14.71,0 -30.73,3.58 -47.2,10.85 -56.97,25.12 -96.14,89.06 -87.77,142.1 5.9,37.26 33.49,57.5 69.14,57.5 15.08,0 31.59,-3.61 48.52,-11.09 102.02,-44.98 95.09,-147.83 95.09,-147.83l-72.1 -421.39c16.88,17.52 42.75,35.71 90.8,52.42 95.16,33.12 44.6,133.52 44.6,133.52 48.75,-52.32 47.2,-141.96 -40.51,-165.91 -90.9,-24.84 -118.21,-110.32 -118.28,-110.89l-1.08 -4 -21.92 9.66 75.94 463.34c-10.33,-5.5 -22.28,-8.28 -35.22,-8.28zm5016.23 -1745.78c-33.21,0 -66.11,16.68 -79.02,42.19 -15.83,30.67 4,58.37 43.05,66.91 9.38,2.06 19.06,3.29 28.6,3.29 29.21,0 56.57,-11.61 70.71,-46.38l-0.31 0.26 149.12 -287.7 0.77 0.22 4.46 -10.07 -262.27 -27.41 -17.53 34.9 -118.38 233.49c-6.92,-14.45 -22.14,-26.21 -43.35,-30.87 -6.61,-1.43 -13.37,-2.12 -20.14,-2.12 -33.05,0 -65.8,16.59 -78.87,42.08 -15.68,30.67 3.08,64.38 42.12,72.92 6.61,1.43 13.22,2.09 19.83,2.09 32.59,0 64.57,-16.14 78.71,-39.22l-0.92 -0.19 0 -1.7 0.92 -1.65 0.46 -0.95 120.99 -238.15 226.76 18.79 -102.23 202.05c-7.07,-14.46 -22.29,-26.03 -43.51,-30.64 -6.61,-1.44 -13.22,-2.12 -19.99,-2.12zm63.34 66l0 -0.03c0,0.02 0,0.02 0,0.03zm-2611.34 3804.52c16.14,-55.33 36.59,-87.71 65.34,-104.2 11.99,-6.84 25.67,-10.6 38.28,-10.6 21.52,0 36.75,10.04 38.9,25.59 3.69,27.31 -24.6,61.54 -62.88,76.31 -28.29,10.87 -63.03,12.7 -79.64,12.9zm-563.39 -239.08c-258.62,0 -518.77,-35.02 -767.45,-92.84 -367.37,-85.42 -712.45,-229.75 -1030.64,-432.26 -310.58,-197.72 -587.08,-444.77 -844.02,-707.2 -173.69,-177.38 -338.19,-363 -499.7,-551.34 23.43,5.89 46.87,11.91 70.27,18.03 170.29,146.12 342.15,290.42 518.06,429.84 624.98,495.37 1312.97,927.5 2092.04,1128.49 302.06,77.92 635.11,136.1 963.03,136.1 36.13,0 72.26,-0.71 108.23,-2.18 -197.7,50.98 -403.25,73.33 -609.82,73.34zm507.43 -111.16c-82.71,0 -165.34,-3.54 -246.92,-9.7 -820.65,-61.96 -1584.44,-392.19 -2261.19,-846.77 -352.93,-237.06 -681.86,-504.77 -1004.57,-780.34 13.13,3.53 26.18,7.1 39.29,10.7 682.54,426.77 1375.18,843.33 2123.68,1145 396.52,159.82 807.79,279.72 1229.53,350.58 179.52,30.14 362.77,51 546.02,54.87 -50.27,22.86 -101.46,43.35 -153.27,61.69 -41.2,4.41 -82.55,7.72 -123.91,9.99l18.29 -68.17 -23.06 0 -17.68 69.3c-41.97,1.94 -84.09,2.85 -126.22,2.85zm419.39 -34.88c27.82,-12.76 55.34,-26.13 82.4,-40.17 33.82,-0.19 67.64,-0.98 101.46,-2.44 -60.42,17.42 -121.91,31.49 -183.87,42.61zm60.26 -78.62c-351.29,0 -703.42,-63.83 -1042.69,-147.77 -835.87,-206.85 -1609.87,-616.7 -2344.58,-1055.55 -152.41,-91.04 -303.52,-184.21 -454.18,-278.1 9.53,2.72 19.13,5.46 28.66,8.19 402.03,178.2 799.71,367.71 1202.45,541.07 783.57,337.3 1590.46,648.53 2434.77,792.21 113.61,19.34 233.99,36.81 357.28,49 -51.2,33.19 -103.62,63.42 -156.97,90.84 -8.3,0.07 -16.6,0.11 -24.75,0.11zm95.16 -1.6c45.81,-26.5 90.39,-54.85 133.59,-84.97 58.42,5.09 117.45,8.92 176.64,11.12 -13.84,7.18 -27.67,14.13 -41.81,20.88 -31.36,14.92 -63.03,28.7 -95.16,41.35 -44.89,4.59 -89.78,7.87 -134.52,10.02 -12.92,0.63 -25.83,1.17 -38.74,1.59zm291.94 -26.93c28.6,-14.1 56.88,-29.15 84.71,-45.16 15.53,0.27 31.36,0.38 46.89,0.38 27.06,0 53.81,-0.37 80.71,-1.16 -69.64,19.61 -140.67,34.67 -212.31,45.94zm150.04 -85.16c43.97,-28.44 86.56,-59.52 127.91,-93.36 50.27,4.47 100.54,8.16 150.82,11 25.37,1.43 50.89,2.65 76.56,3.6 -47.35,26.02 -96.24,48.8 -146.51,68.7 -69.33,6.42 -138.98,9.56 -208.77,10.06zm-62.26 -0.25c-65.34,-0.95 -130.83,-4.05 -196.02,-8.79 47.5,-35.47 93.47,-73.1 137.44,-112.69 67.49,9.3 134.98,17.36 202.77,24.05 -45.81,35.19 -93.93,67.77 -144.2,97.43zm-240.75 -12.31c-74.87,-6.28 -149.28,-14.57 -222.76,-24.06 -410.78,-53.02 -814.55,-156.38 -1208.99,-280.96 -814.15,-257.2 -1592.34,-614.88 -2369.89,-964.27 -11.34,-5.1 -22.7,-10.21 -34.07,-15.31 403.07,122.21 801.59,260.09 1200.44,394.81 555.31,187.56 1111.35,374.41 1676.44,530.72 362.64,100.34 732.22,191.12 1105.95,244.98 -40.58,34.62 -82.4,67.53 -125.29,98.6 -7.23,5.23 -14.6,10.41 -21.83,15.5zm620.94 -10.5c32.28,-16.69 63.8,-34.7 94.54,-54.02 22.76,0.49 45.66,0.73 68.57,0.73 28.44,0 57.19,-0.4 85.78,-1.24 -19.52,5.89 -39.2,11.39 -58.88,16.49 -62.72,16.15 -126.06,28.66 -190.01,38.03zm167.42 -89.64c-6.46,0 -12.76,-0.02 -19.06,-0.06 106.69,-75.02 201.85,-166.99 280.72,-276.11 149.43,-206.6 227.68,-450.92 250.74,-701.47 -36.59,349.16 -209.69,690.48 -484.42,907.28 -31.83,25.09 -64.72,48.23 -98.7,69.53 -82.55,-1.92 -164.8,-7.06 -246.13,-14.21 6.61,-5.92 13.37,-11.9 19.99,-17.97 296.71,-271.69 478.12,-679.97 517.01,-1076.98 28.13,-285.1 -15.84,-571.4 -69.18,-851.49l6.3 9.77 122.99 -41.46c121.61,261.9 226.76,534.51 238.44,825.7 0.61,15.39 0.92,30.78 0.92,46.21 -0.46,47.97 -2.92,95.9 -7.23,143.62 5.07,-47.83 7.53,-95.81 7.23,-143.62 0.46,-40.85 -0.46,-81.71 -2.77,-122.43 -14.6,-264.04 -110.84,-514.94 -221.07,-754.7l229.52 -77.32c110.85,151.42 210.47,309.86 285.18,484.33 163.88,382.77 134.52,819.08 -89.94,1171.35 -123.6,193.92 -308.09,328.1 -516.4,412.15 -67.8,5.47 -135.9,7.89 -204.16,7.89zm-360.51 -19.08c-53.81,-5.23 -107,-11.26 -159.58,-17.74 -16.45,-2.05 -32.9,-4.14 -49.2,-6.31 325.46,-308.35 545.92,-726.87 631.09,-1177 48.12,-254.48 61.49,-513.18 75.94,-771.67 1.84,9.81 3.84,19.63 5.69,29.42 39.67,203.68 74.56,408.52 82.71,616.2 9.53,240.95 -43.81,476.18 -133.29,698.6 -98.7,245.36 -253.2,462.73 -453.36,628.49zm681.04 -1.45c117.45,-62.07 224.61,-143.78 316.85,-249.69 205.24,-235.48 287.79,-554.64 283.18,-861.32 -4.92,-328.61 -150.51,-626.65 -333.3,-891.63 -13.68,-19.88 -27.67,-39.63 -41.81,-59.34l56.73 -19.15c-7.99,23.69 -2.46,52.58 15.99,80.89 27.36,41.95 77.63,68.47 122.68,68.47 11.07,0 21.68,-1.56 31.67,-4.87 51.04,-16.86 60.88,-71.44 26.75,-123.6 -40.43,-62.11 -98.39,-72.52 -132.67,-72.52 -17.37,0 -28.6,2.63 -28.6,2.63l-113.61 39.22c-106.85,-145.34 -224.92,-286.33 -340.99,-429.06 10,-71.18 22.14,-141.82 37.21,-211.57 182.79,156.41 370.04,308.37 543.14,473.13 360.2,342.49 672.74,773.21 594.64,1296.71 -57.04,381.14 -274.11,700.1 -632,852.98 -129.29,55.21 -265.96,89.46 -405.86,108.72zm-5275.94 -133.18l-7.06 -16.68 161.31 -159.68 6.5 15.28 -160.76 161.08zm2485.39 -536.11l-3.8 -18.05 209.88 -141.2 4.12 19.71 -210.2 139.55zm-2675.28 -679.95c-16.05,-4.06 -32.11,-8.07 -48.19,-12.05 -8.58,-10.05 -17.16,-20.12 -25.72,-30.19 16.08,6.67 32.25,13.42 48.3,20.16 8.56,7.38 17.07,14.71 25.61,22.09zm-103.69 -89.21c-5.23,-2.2 -10.47,-4.4 -15.69,-6.58 -2.11,-2.49 -4.24,-5.01 -6.35,-7.5 7.33,4.69 14.71,9.41 22.04,14.08zm5397.65 -514.8c-3.08,-15.97 -6.15,-31.95 -9.23,-47.89 4.31,-78.05 8.92,-156.08 14.76,-233.96 19.52,40.13 39.2,80.11 58.42,120.07 7.53,15.54 15.07,31.12 22.6,46.72 -16.91,75.98 -79.79,111.5 -86.55,115.06zm85.17 -37.51c7.23,-9.65 14.29,-21.52 20.6,-37.12 4,8.59 8.15,17.22 12.15,25.84l-32.74 11.28zm48.27 -16.65c-6.61,-14.3 -13.22,-28.54 -19.99,-42.74 3.23,-11.27 6.3,-24.06 8.76,-38.71 10.3,-59.16 52.58,-71.1 85.01,-71.1 21.99,0 39.51,5.47 39.51,5.47 -19.99,-13.35 -43.36,-20.37 -65.8,-20.37 -41.67,0 -80.56,24.31 -89.94,77.54 -9.07,-18.79 -17.98,-37.49 -27.06,-56.14 -18.45,-38.44 -37.2,-76.84 -55.81,-115.3 3.39,-41.16 6.92,-82.22 11.23,-123.25 3.23,-32.67 7.07,-65.29 11.22,-97.76 109.77,134.41 221.69,267.39 324.84,405.85l-221.99 76.51zm-145.12 -5.77c-0.92,-4.98 -1.85,-9.96 -2.92,-14.94 -26.13,-133.96 -52.73,-268.21 -73.64,-402.66 29.67,63.65 60.26,126.8 90.86,189.71 -5.38,76.1 -9.99,152.2 -14.29,227.9zm16.91 -261.78c-34.75,-71.8 -69.33,-143.73 -102.54,-216.26 -8.92,-62.32 -16.6,-124.68 -22.14,-187.08 47.35,61.75 96.24,122.57 145.59,183.06 -8.61,73.22 -15.37,146.74 -20.91,220.27zm-112.23 -237.51c-49.35,-108.89 -95.47,-219.11 -134.06,-331.95 36.75,53.28 75.18,105.56 114.69,157.1 4.92,58.45 11.53,116.73 19.37,174.85zm136.98 -13.42c-51.81,-63.75 -103.16,-127.86 -152.81,-192.9 -4.92,-63.66 -7.69,-127.31 -7.69,-191.02 63.49,58.11 128.52,114.87 194.01,170.98 -13.68,70.48 -24.6,141.53 -33.51,212.94zm-159.42 -201.62c-46.74,-61.33 -91.78,-123.5 -134.52,-186.96 -17.07,-55.22 -32.29,-111.09 -45.05,-167.8 55.81,57.4 113.77,112.96 172.8,167.26 -0.16,62.72 2.31,125.23 6.76,187.5zm199.7 -45.75c-67.65,-57.97 -134.83,-116.55 -200.32,-176.55 2.61,-147.08 20.6,-294.28 61.34,-441.42 98.08,-355.37 325.91,-667.58 602.18,-907.02 471.2,-408.4 1100.43,-560.54 1712.14,-560.54 14.91,0 29.83,0.09 44.59,0.28 236.29,2.83 471.97,27.07 705.03,69.19l0 385.75c-241.83,-55.59 -485.8,-87.12 -727.01,-87.12 -489.19,0 -966.53,129.69 -1390.37,451.46 -307.47,233.45 -561.44,549.99 -703.34,909.7 -45.81,115.84 -79.17,235.09 -104.23,356.27zm-356.67 -175.12c-59.34,-90.98 -113.15,-184.77 -158.81,-282.67 40.59,47.38 82.55,93.31 125.75,138.08 0.31,1.69 0.62,3.4 0.92,5.11 9.07,46.99 19.83,93.47 32.13,139.48zm150.66 -6.53c-63.03,-57.81 -124.68,-117.01 -184.17,-178.33 -139.13,-707.77 281.64,-1371.87 870.14,-1732.13 513.32,-314.22 1136.1,-413.38 1730.13,-413.38 11.22,0 22.6,0.03 33.97,0.11 226.3,1.43 454.14,17.08 680.9,46.45l0 406.49c-40.89,-7.46 -81.94,-14.41 -122.99,-20.87 -208.77,-32.74 -422.46,-51.34 -635.84,-51.34 -433.07,0 -865.53,76.59 -1256.17,267.21 -281.95,137.53 -528.54,338.39 -724.25,582.95 -252.12,314.98 -383.42,690.48 -391.72,1092.86zm1263.86 -392.42l-226.76 -19.02 8.3 -16.16 225.99 20.36 -7.53 14.82zm-771.29 -2457.23l-32.74 -191.72c16.91,17.51 42.74,35.71 90.7,52.42 54.12,18.83 61.19,59.39 57.19,90.89 -38.74,15.45 -77.17,31.61 -115.15,48.41z"/>
  <path class="fil1" d="M6373.37 6680.72c-109.49,0 -219.06,-6.56 -327.8,-18.91 -370.56,-42.06 -742.35,-135.56 -1080.46,-294.76 -676.02,-318.31 -1202.28,-860.9 -1683.92,-1418.88 -29.22,-33.85 -58.33,-67.8 -87.37,-101.82 13.68,3.35 27.36,6.75 41.03,10.18 161.51,188.34 326.01,373.96 499.7,551.34 256.94,262.43 533.44,509.48 844.02,707.2 318.18,202.51 663.27,346.84 1030.64,432.26 248.68,57.82 508.83,92.84 767.45,92.84 206.57,-0.01 412.12,-22.36 609.82,-73.34 4.61,-0.19 9.07,-0.37 13.68,-0.59l-9.84 38.36c-201.24,52.48 -409.01,76.13 -616.95,76.13zm639.7 -82.19l8.92 -33.41c44.89,-2.48 89.48,-6.13 133.9,-11.13 -25.98,9.23 -52.27,17.91 -78.71,26.04 -21.37,6.49 -42.74,12.65 -64.11,18.49zm143.59 -83.51c51.81,-18.34 103.01,-38.83 153.27,-61.69 20.29,0.42 40.74,0.64 61.04,0.64 4.92,0 9.84,-0.01 14.91,-0.03 -27.06,14.04 -54.58,27.42 -82.4,40.17 -48.58,8.72 -97.62,15.62 -146.82,20.91zm231.83 -99.63c53.35,-27.42 105.77,-57.65 156.97,-90.84 15.68,1.55 31.36,3.01 47.04,4.38 -43.2,30.12 -87.78,58.47 -133.59,84.97 -23.52,0.8 -47.04,1.29 -70.41,1.49zm254.12 -122.62c-14.91,-1.09 -29.82,-2.26 -44.73,-3.52 7.23,-5.09 14.6,-10.27 21.83,-15.5 42.89,-31.07 84.71,-63.98 125.29,-98.6 11.69,1.68 23.37,3.32 35.05,4.93 -43.97,39.59 -89.94,77.22 -137.44,112.69zm174.34 -146.79c-11.22,-1.48 -22.29,-2.98 -33.36,-4.52 229.07,-205.48 415.24,-465.42 530.85,-748.47 155.89,-381.88 183.41,-792.84 206.62,-1200.1 0.15,-2.55 0.31,-5.14 0.46,-7.69 0.77,4.04 1.53,8.07 2.46,12.11 -14.45,258.49 -27.82,517.19 -75.94,771.67 -85.17,450.12 -305.62,868.65 -631.09,1177zm-4624.21 -1338.69c-13.54,-3.35 -27.09,-6.65 -40.65,-9.93 -11.51,-13.54 -23,-27.07 -34.5,-40.63 16.52,6.77 32.93,13.53 49.43,20.37 8.56,10.07 17.14,20.14 25.72,30.19zm-71.19 -83.74c-16.51,-6.92 -32.99,-13.79 -49.52,-20.63 -8.82,-10.44 -17.65,-20.86 -26.47,-31.3 23.26,14.82 46.43,29.61 69.64,44.43 2.1,2.49 4.24,5.01 6.35,7.5zm-133.46 -123.49c-2.1,-1.31 -4.21,-2.61 -6.32,-3.94 -1.68,-1.97 -3.35,-3.95 -5.01,-5.94 3.78,3.3 7.55,6.58 11.33,9.87zm-14.62 -51.76c-40.34,-35.01 -80.63,-69.93 -121.03,-104.82 -100.47,-118.11 -201.7,-235.57 -305.2,-351.05 -239.07,-266.84 -488.93,-531.78 -780.28,-742.6 -261.43,-189.17 -557.38,-333.17 -879.78,-377.04 -83.03,-11.3 -165.96,-16.56 -248.64,-16.56 -215.89,0 -429.94,35.93 -638.55,94.27l0 -39.11c155.8,-44.31 315.11,-76.41 476.63,-88.35 48.56,-3.6 97.07,-5.41 145.46,-5.41 281.52,0 558.5,61.27 812.18,189.31 305.3,154.11 568.18,378.68 807.37,620.63 257.98,260.95 495.27,540.47 731.83,820.73zm5552.2 -380.85c-0.92,-4.01 -1.69,-8.01 -2.46,-12.04 4.3,-75.7 8.92,-151.8 14.29,-227.9 1.08,2 2,4 2.92,5.98 -5.84,77.87 -10.45,155.91 -14.76,233.96zm17.37 -267.62c-0.92,-2.06 -2,-4.14 -2.92,-6.2 5.53,-73.53 12.3,-147.05 20.91,-220.27 1.54,1.83 3.07,3.64 4.46,5.46 -4.15,32.47 -7.99,65.09 -11.22,97.76 -4.31,41.03 -7.84,82.1 -11.23,123.25zm26.6 -251.22c-1.69,-1.97 -3.22,-3.94 -4.76,-5.9 8.92,-71.41 19.83,-142.46 33.51,-212.94 2.77,2.43 5.53,4.84 8.46,7.27 -15.07,69.75 -27.21,140.39 -37.21,211.57zm44.74 -245.48c-3.07,-2.6 -6.15,-5.2 -9.22,-7.8 25.06,-121.17 58.42,-240.43 104.23,-356.27 141.9,-359.71 395.87,-676.25 703.34,-909.7 423.84,-321.77 901.19,-451.46 1390.37,-451.46 241.21,0 485.19,31.53 727.01,87.12l0 36.11c-234.91,-53.3 -473.97,-83.69 -714.25,-83.69 -35.66,0 -71.18,0.66 -106.85,2.03 -699.96,26.66 -1336.57,349.73 -1755.03,915.95 -171.42,232.12 -277.03,493.03 -339.6,767.69z"/>
  <path class="fil2" d="M6878.25 6569c-327.91,0 -660.97,-58.19 -963.03,-136.1 -779.06,-200.99 -1467.06,-633.12 -2092.04,-1128.49 -175.9,-139.42 -347.76,-283.72 -518.06,-429.84 22.09,5.78 44.21,11.65 66.29,17.62 322.71,275.57 651.64,543.28 1004.57,780.34 676.76,454.58 1440.54,784.82 2261.19,846.77 81.57,6.16 164.2,9.7 246.92,9.7 42.12,0 84.25,-0.91 126.22,-2.85l-10.15 40.08c-4.61,0.21 -9.07,0.4 -13.68,0.59 -35.97,1.47 -72.1,2.18 -108.23,2.18zm143.74 -3.87l10.76 -40.11c41.35,-2.27 82.71,-5.58 123.91,-9.99 49.2,-5.29 98.24,-12.19 146.82,-20.91 61.96,-11.12 123.45,-25.19 183.87,-42.61 46.58,-2.01 93.01,-5.29 139.29,-9.95 -149.89,58.33 -308.4,94.19 -470.74,112.45 -44.43,4.99 -89.01,8.65 -133.9,11.13zm610.18 -162.85c32.13,-12.66 63.8,-26.43 95.16,-41.35 14.14,-6.75 27.98,-13.7 41.81,-20.88 22.14,0.83 44.28,1.42 66.41,1.76 -27.82,16.01 -56.11,31.06 -84.71,45.16 -39.36,6.21 -79.02,11.27 -118.68,15.31zm248.74 -100.39c-13.99,0 -28.13,-0.11 -42.28,-0.33 50.27,-29.66 98.39,-62.24 144.2,-97.43 15.37,1.51 30.75,2.95 45.97,4.32 -41.35,33.83 -83.94,64.92 -127.91,93.36 -6.61,0.05 -13.22,0.08 -19.99,0.08zm188.48 -127.82c-14.61,-1.29 -29.21,-2.64 -43.66,-4.04 200.16,-165.76 354.67,-383.12 453.36,-628.49 89.48,-222.42 142.82,-457.65 133.29,-698.6 -8.15,-207.68 -43.05,-412.52 -82.71,-616.2 -1.84,-9.79 -3.84,-19.62 -5.69,-29.42 -0.92,-4.04 -1.69,-8.07 -2.46,-12.11 -30.6,-156.13 -61.96,-312.44 -85.17,-469.6 3.38,7.4 6.76,14.82 10.3,22.2 20.91,134.46 47.5,268.7 73.64,402.66 1.08,4.98 2,9.96 2.92,14.94 0.77,4.03 1.53,8.02 2.46,12.04 3.08,15.94 6.15,31.92 9.23,47.89 -0.46,0.2 -0.61,0.29 -0.61,0.31l-3.84 1.69 6.76 10.3c53.34,280.09 97.31,566.39 69.18,851.49 -38.89,397.01 -220.3,805.29 -517.01,1076.98 -6.61,6.07 -13.37,12.05 -19.99,17.97zm-4766.72 -1338.88c-20.54,-5.35 -41.14,-10.64 -61.72,-15.85 -8.55,-7.38 -17.05,-14.71 -25.61,-22.09 27.52,11.51 54.9,23.09 82.34,34.79 1.67,1.06 3.32,2.09 4.99,3.15zm-154.45 -135.27c-53.33,-33.36 -106.68,-66.66 -160.12,-99.86 -3.78,-3.29 -7.55,-6.57 -11.33,-9.87 -8.76,-7.61 -17.51,-15.22 -26.26,-22.83 -273.01,-237.41 -544,-489.94 -850.76,-683.68 -328.07,-207.17 -702.92,-358.49 -1094.73,-372.42 -20.73,-0.74 -41.36,-1.09 -61.94,-1.09 -336.76,0 -655.22,97.57 -943.07,263.74l0 -39.74c157.67,-92.62 326.29,-166.38 504.39,-209.95 140.67,-34.42 283.44,-51 425.95,-51 249.13,0 497.35,50.7 731.32,145.45 355.9,144.09 656.09,370.37 947.14,616.33 81.6,68.95 162.74,138.57 243.64,208.46 40.4,34.88 80.69,69.81 121.03,104.82 58.22,50.52 116.45,101.12 174.74,151.63zm5289.37 -1022.55c-3.23,-7.06 -6.46,-14.18 -9.69,-21.25 -7.84,-58.12 -14.45,-116.4 -19.37,-174.85 2.31,3.03 4.61,6.01 6.92,9.03 5.53,62.4 13.22,124.76 22.14,187.08zm-25.52 -227.57c-2.31,-2.91 -4.46,-5.81 -6.61,-8.72 -4.46,-62.26 -6.92,-124.77 -6.76,-187.5 2,1.74 3.84,3.46 5.69,5.19 0,63.71 2.77,127.35 7.69,191.02zm-7.23 -231.02c-2,-1.71 -3.69,-3.38 -5.69,-5.1 8.3,-402.37 139.59,-777.87 391.72,-1092.86 195.71,-244.56 442.29,-445.42 724.25,-582.95 390.64,-190.62 823.09,-267.21 1256.17,-267.21 213.38,0 427.07,18.6 635.84,51.34 41.05,6.46 82.1,13.41 122.99,20.87l0 36.4c-233.06,-42.12 -468.74,-66.37 -705.03,-69.19 -14.76,-0.19 -29.67,-0.28 -44.59,-0.28 -611.71,0 -1240.94,152.14 -1712.14,560.54 -276.27,239.44 -504.1,551.65 -602.18,907.02 -40.74,147.14 -58.73,294.34 -61.34,441.42z"/>
  <path class="fil3" d="M7370.97 6453.97c-20.29,0 -40.74,-0.22 -61.04,-0.64 -183.25,-3.87 -366.5,-24.73 -546.02,-54.87 -421.74,-70.86 -833.01,-190.76 -1229.53,-350.58 -748.5,-301.67 -1441.14,-718.23 -2123.68,-1145 3.54,0.97 7.07,1.93 10.61,2.91 33.71,9.3 67.33,18.73 100.97,28.29 150.66,93.9 301.77,187.06 454.18,278.1 734.71,438.85 1508.71,848.69 2344.58,1055.55 339.28,83.94 691.41,147.77 1042.69,147.77 8.14,0 16.45,-0.03 24.75,-0.11 23.37,-0.2 46.89,-0.7 70.41,-1.49 12.91,-0.43 25.82,-0.97 38.74,-1.59 44.73,-2.15 89.62,-5.43 134.52,-10.02 39.66,-4.04 79.33,-9.1 118.68,-15.31 71.64,-11.27 142.67,-26.32 212.31,-45.94 45.5,-1.34 90.86,-3.86 135.9,-7.74 -74.72,29.84 -152.66,53.41 -232.6,70.72 -79.17,17.14 -159.27,29.44 -239.83,37.54 -46.28,4.65 -92.7,7.94 -139.29,9.95 -33.82,1.46 -67.64,2.25 -101.46,2.44 -5.08,0.02 -9.99,0.03 -14.91,0.03zm738.69 -162.23c50.27,-19.9 99.16,-42.68 146.51,-68.7 19.07,0.71 38.13,1.28 57.19,1.68 -30.74,19.32 -62.26,37.32 -94.54,54.02 -36.28,5.31 -72.72,9.61 -109.16,13zm257.51 -102.7c-17.22,-0.11 -34.44,-0.37 -51.66,-0.77 33.98,-21.31 66.88,-44.45 98.7,-69.53 274.72,-216.8 447.83,-558.12 484.42,-907.28 4.31,-47.72 6.76,-95.65 7.23,-143.62 0,-15.44 -0.31,-30.82 -0.92,-46.21 -11.68,-291.19 -116.84,-563.8 -238.44,-825.7l15.53 -5.23c110.23,239.76 206.47,490.66 221.07,754.7 2.31,40.72 3.23,81.59 2.77,122.43 0.31,47.81 -2.15,95.79 -7.23,143.62 -23.06,250.55 -101.31,494.87 -250.74,701.47 -78.87,109.12 -174.03,201.09 -280.72,276.11zm-5058.39 -1352.27c-2.03,-0.52 -4.07,-1.06 -6.12,-1.59 -1.67,-1.06 -3.32,-2.09 -4.99,-3.15 3.69,1.57 7.43,3.17 11.11,4.74zm15.02 -26.84c-62.03,-26.95 -124.22,-53.61 -186.56,-79.81 -7.33,-4.67 -14.71,-9.39 -22.04,-14.08 -23.21,-14.82 -46.38,-29.61 -69.64,-44.43 -450.35,-286.96 -911.58,-568.31 -1446.75,-651.13 -120.14,-18.57 -242.35,-28.89 -364.52,-28.89 -195.71,0 -391.23,26.47 -577.41,87.8 -251.67,82.88 -472.9,222.45 -656.88,406.03l0 -37.8c258.23,-256.45 588.77,-425.23 957.13,-475.27 94.61,-12.84 189.95,-19.05 285.45,-19.05 311.73,0 624.32,66.15 912.21,183.08 290.38,117.96 557.13,292.17 822.54,456.96 1.49,0.92 2.97,1.84 4.46,2.77 2.1,1.32 4.21,2.63 6.32,3.94 53.44,33.21 106.78,66.51 160.12,99.86 58.54,36.64 117.07,73.35 175.59,110.01zm5329.01 -643.4c-4,-8.62 -8.15,-17.25 -12.15,-25.84 2.77,-6.69 5.23,-14.07 7.69,-22.26 6.76,14.2 13.37,28.44 19.99,42.74l-15.53 5.36zm-31.36 -66.26c-7.53,-15.6 -15.07,-31.18 -22.6,-46.72 -19.21,-39.95 -38.89,-79.94 -58.42,-120.07 -0.92,-1.98 -1.85,-3.98 -2.92,-5.98 -30.59,-62.91 -61.18,-126.06 -90.86,-189.71 -3.53,-7.38 -6.92,-14.8 -10.3,-22.2 -65.03,-140.55 -124.68,-283.5 -169.42,-431.01 8.92,13.27 17.83,26.44 26.9,39.57 38.59,112.84 84.71,223.07 134.06,331.95 3.23,7.07 6.46,14.19 9.69,21.25 33.21,72.53 67.79,144.46 102.54,216.26 0.92,2.06 2,4.14 2.92,6.2 18.6,38.46 37.36,76.86 55.81,115.3 9.07,18.65 17.99,37.36 27.06,56.14 -0.61,3.12 -1.08,6.37 -1.38,9.69 -0.77,6.72 -1.69,13.16 -3.08,19.32zm-350.51 -846.15c-7.53,-11.28 -14.91,-22.55 -22.45,-33.91 -12.3,-46.01 -23.06,-92.49 -32.13,-139.48 -0.31,-1.71 -0.61,-3.42 -0.92,-5.11 3.54,3.58 6.92,7.13 10.45,10.7 12.76,56.71 27.98,112.58 45.05,167.8zm-55.96 -218.78c-2.61,-2.75 -5.23,-5.5 -7.84,-8.26 -44.43,-279.24 -23.83,-569.48 78.25,-834.69 221.07,-574.6 736.54,-970.7 1308.13,-1160.65 388.33,-129.04 798.81,-181.8 1209.12,-181.8 225.68,0 451.21,15.96 672.9,43.95 18.14,2.29 36.44,4.67 54.58,7.13l0 35.36c-226.76,-29.37 -454.6,-45.02 -680.9,-46.45 -11.37,-0.08 -22.75,-0.11 -33.97,-0.11 -594.03,0 -1216.81,99.16 -1730.13,413.38 -588.5,360.26 -1009.27,1024.37 -870.14,1732.13z"/>
  <path class="fil4" d="M7882.45 6342.19c-15.53,0 -31.36,-0.12 -46.89,-0.38 -22.14,-0.35 -44.28,-0.94 -66.41,-1.76 -59.19,-2.2 -118.22,-6.02 -176.64,-11.12 -15.68,-1.37 -31.36,-2.83 -47.04,-4.38 -123.3,-12.19 -243.67,-29.66 -357.28,-49 -844.31,-143.68 -1651.2,-454.92 -2434.77,-792.21 -402.74,-173.36 -800.42,-362.87 -1202.45,-541.07 70.58,20.25 140.96,41.06 211.23,62.37 11.36,5.11 22.72,10.21 34.07,15.31 777.55,349.39 1555.74,707.07 2369.89,964.27 394.44,124.59 798.21,227.94 1208.99,280.96 73.49,9.49 147.89,17.78 222.76,24.06 14.91,1.26 29.83,2.43 44.73,3.52 65.18,4.74 130.68,7.84 196.02,8.79 14.14,0.22 28.29,0.33 42.28,0.33 6.76,0 13.37,-0.03 19.99,-0.08 69.8,-0.51 139.44,-3.64 208.77,-10.06 36.44,-3.39 72.87,-7.69 109.16,-13 63.95,-9.37 127.29,-21.88 190.01,-38.03 19.68,-5.1 39.36,-10.6 58.88,-16.49 45.81,-1.35 91.78,-3.86 137.59,-7.75 -157.58,65.95 -329.76,101.69 -506.25,116.82 -45.04,3.87 -90.39,6.4 -135.9,7.74 -26.91,0.8 -53.65,1.16 -80.71,1.16zm707.95 -160.97c208.31,-84.05 392.79,-218.23 516.4,-412.15 224.45,-352.27 253.82,-788.59 89.94,-1171.35 -74.72,-174.47 -174.34,-332.91 -285.18,-484.33l20.14 -6.79c14.14,19.71 28.13,39.46 41.81,59.34 182.79,264.98 328.38,563.02 333.3,891.63 4.61,306.67 -77.94,625.84 -283.18,861.32 -92.24,105.91 -199.4,187.62 -316.85,249.69 -38.58,5.31 -77.33,9.47 -116.38,12.64zm-8590.4 -1001.88l0 -39.62c130.31,-206.82 305.96,-381.86 521.76,-506.52 335.51,-193.81 727.42,-273.25 1116.51,-273.25 154.56,0 308.76,12.55 458.67,35.43 245.73,37.53 479.16,112.68 710.76,201.75 88.58,34.07 176.66,69.46 264.33,105.78 16.52,6.84 33.01,13.71 49.52,20.63 5.23,2.18 10.47,4.38 15.69,6.58 62.34,26.2 124.53,52.86 186.56,79.81 61.59,26.77 123,53.81 184.38,81.06 -66.31,-18.73 -132.75,-36.82 -199.4,-54.22 -3.69,-1.57 -7.43,-3.17 -11.11,-4.74 -27.44,-11.7 -54.82,-23.28 -82.34,-34.79 -16.05,-6.74 -32.22,-13.48 -48.3,-20.16 -16.5,-6.84 -32.9,-13.61 -49.43,-20.37 -147.99,-60.66 -297.05,-118.56 -447.55,-172.3 -319.26,-113.99 -677.67,-179.84 -1032.03,-179.84 -649.9,0 -1285.72,221.76 -1638.02,774.76zm8890.34 -1094.69c-103.15,-138.45 -215.08,-271.43 -324.84,-405.85 -1.39,-1.81 -2.92,-3.63 -4.46,-5.46 -49.35,-60.49 -98.24,-121.31 -145.59,-183.06 -2.31,-3.01 -4.61,-6 -6.92,-9.03 -39.51,-51.54 -77.94,-103.82 -114.69,-157.1 -9.07,-13.13 -17.98,-26.3 -26.9,-39.57 -51.04,-76.5 -98.7,-155.32 -141.13,-237.46 -25.21,-48.69 -47.81,-97.9 -67.95,-147.63 10.45,12.79 21.06,25.48 31.82,38.04 45.66,97.9 99.47,191.69 158.81,282.67 7.53,11.36 14.91,22.63 22.45,33.91 42.74,63.46 87.78,125.63 134.52,186.96 2.15,2.9 4.31,5.81 6.61,8.72 49.65,65.05 101,129.15 152.81,192.9 1.54,1.97 3.07,3.94 4.76,5.9 116.07,142.72 234.14,283.71 340.99,429.06l-20.29 6.99zm-836.01 -1228.12c-7.99,-9.67 -15.83,-19.4 -23.67,-29.19 -45.05,-128.28 -73.02,-260.29 -82.71,-396.91 -4,-49.89 -5.07,-99.56 -3.23,-148.72 8.76,-325.77 134.98,-647.5 333.76,-903.98 341.29,-440.28 866.91,-689.12 1397.3,-819.79 408.16,-100.54 830.01,-142.85 1251.4,-142.85 201.7,0 403.1,9.7 602.95,27.34l0 37.28c-193.71,-17.11 -388.18,-26.04 -582.66,-26.04 -164.04,0 -328.07,6.37 -491.34,19.54 -577.89,46.63 -1179.45,173.69 -1674.02,490.21 -448.44,286.92 -817.1,777.47 -837.39,1318.29 0,3.04 -0.15,6.07 -0.15,9.13 -0.92,47.07 0.15,93.59 3.38,139.59 4,47.52 10.61,95.25 20.29,143.22 19.99,98.61 49.35,192.54 86.09,282.89z"/>
  <path class="fil5" d="M8381.93 6225.46c-22.9,0 -45.81,-0.24 -68.57,-0.73 -19.06,-0.4 -38.12,-0.97 -57.19,-1.68 -25.67,-0.95 -51.19,-2.16 -76.56,-3.6 -50.27,-2.84 -100.54,-6.54 -150.82,-11 -15.22,-1.37 -30.59,-2.82 -45.97,-4.32 -67.79,-6.68 -135.28,-14.74 -202.77,-24.05 -11.68,-1.61 -23.37,-3.25 -35.05,-4.93 -373.73,-53.86 -743.31,-144.64 -1105.95,-244.98 -565.09,-156.32 -1121.13,-343.17 -1676.44,-530.72 -398.85,-134.72 -797.36,-272.6 -1200.44,-394.81 -70.27,-21.31 -140.65,-42.12 -211.23,-62.37 -9.53,-2.74 -19.13,-5.47 -28.66,-8.19 -33.64,-9.56 -67.26,-18.99 -100.97,-28.29 -3.54,-0.97 -7.07,-1.94 -10.61,-2.91 -13.11,-3.6 -26.16,-7.16 -39.29,-10.7 -22.07,-5.97 -44.2,-11.84 -66.29,-17.62 -23.4,-6.12 -46.84,-12.15 -70.27,-18.03 -13.67,-3.43 -27.35,-6.83 -41.03,-10.18 -302.7,-74.13 -607.99,-126.4 -922.11,-126.4 -2.82,0 -5.64,0 -8.47,0.01 -474.19,1.43 -966.59,69.08 -1400.46,268.99 -238.18,109.77 -461.11,260.61 -630.07,463.28 -97.5,116.94 -174.55,245.94 -232.71,383.28l0 -33.69c116.98,-273.85 306.4,-510.19 562.18,-683.03 417.56,-282.18 931.54,-396.84 1428.37,-428.25 79.94,-5.04 159.26,-7.55 238.14,-7.55 303.02,0 599.45,36.95 898.62,108.38 8.27,1.97 16.52,3.97 24.8,5.96 13.56,3.28 27.11,6.58 40.65,9.93 16.08,3.98 32.14,8 48.19,12.05 20.59,5.21 41.19,10.5 61.72,15.85 2.04,0.52 4.09,1.06 6.12,1.59 66.64,17.4 133.09,35.49 199.4,54.22 368.38,103.99 731.85,226.65 1094.3,348.5 555.14,186.63 1108.8,378.5 1669.96,546.47 494.85,148.15 998.45,284.72 1511.15,355.5 11.07,1.54 22.14,3.04 33.36,4.52 16.3,2.17 32.75,4.26 49.2,6.31 52.58,6.48 105.77,12.51 159.58,17.74 14.45,1.4 29.05,2.75 43.66,4.04 81.33,7.15 163.57,12.28 246.13,14.21 17.22,0.4 34.44,0.66 51.66,0.77 6.3,0.04 12.6,0.06 19.06,0.06 68.26,0 136.36,-2.41 204.16,-7.89 39.05,-3.17 77.79,-7.33 116.38,-12.64 139.9,-19.26 276.57,-53.51 405.86,-108.72 357.89,-152.89 574.96,-471.84 632,-852.98 78.1,-523.5 -234.44,-954.21 -594.64,-1296.71 -173.11,-164.76 -360.35,-316.72 -543.14,-473.13 -2.92,-2.43 -5.69,-4.84 -8.46,-7.27 -65.49,-56.11 -130.52,-112.87 -194.01,-170.98 -1.84,-1.73 -3.69,-3.46 -5.69,-5.19 -59.04,-54.3 -116.99,-109.86 -172.8,-167.26 -3.53,-3.57 -6.92,-7.12 -10.45,-10.7 -43.2,-44.77 -85.17,-90.7 -125.75,-138.08 -10.76,-12.56 -21.37,-25.24 -31.82,-38.04 -7.69,-9.3 -15.37,-18.66 -22.91,-28.1 -146.35,-182.91 -268.11,-390.9 -317.15,-622.23 -41.35,-194.55 -36.28,-400.74 3.08,-595.22 126.68,-626.39 588.96,-1025.1 1139.33,-1275.8l5.69 34.54c-25.37,11.55 -50.58,23.4 -75.49,35.59 -416.62,202.79 -800.5,510.74 -980.52,949.44 -98.39,239.55 -148.66,514.57 -100.54,771.24 43.66,232.55 154.2,444.31 298.86,629.94 7.38,9.53 14.91,19.02 22.45,28.43 7.84,9.79 15.68,19.52 23.67,29.19 48.73,58.97 99.93,115.62 152.81,170.55 2.61,2.75 5.23,5.5 7.84,8.26 59.49,61.32 121.14,120.52 184.17,178.33 2,1.72 3.69,3.39 5.69,5.1 65.49,60 132.67,118.58 200.32,176.55 3.07,2.6 6.15,5.19 9.22,7.8 168.96,144.63 341.45,285.91 502.72,437.46 336.06,315.71 638.76,692.67 642.91,1175.38 3.23,369.58 -132.36,756.79 -446.6,972.77 -208.16,143.05 -456.28,206.31 -708.1,227.73 -45.81,3.89 -91.78,6.4 -137.59,7.75 -28.59,0.85 -57.34,1.24 -85.78,1.24zm515.63 -5827.01l-5.84 -34.42c37.97,-16.8 76.41,-32.96 115.15,-48.41 -2.77,20.62 -9.99,37.36 -11.99,41.59 -32.59,13.25 -65.03,27 -97.31,41.25zm97.93 -41.54c12.61,-13.9 21.68,-30.32 26.75,-47.4 317.77,-125.3 655.99,-206.23 970.53,-256.91 133.29,-21.48 267.19,-38.92 401.55,-52.61l710.87 0c-246.75,2.15 -493.34,15.59 -738.39,41.43 -464.59,49.01 -936.09,138.73 -1371.31,315.48zm2534.63 -349.7l0 0c-94.09,-3.97 -188.17,-6.4 -282.41,-7.21l282.41 0 0 7.21z"/>
  <path class="fil6" d="M1902.41 4401.77c13.51,102.77 -17.94,227.48 -100.48,325.04 -43.4,52.84 -100.4,97.33 -165.4,129.77 -56.83,-196.12 -117.1,-402.77 -175.73,-619.4 -18.77,-69.89 -37.51,-140.78 -56.1,-212.61l1.17 -0.32c8.47,-2.21 16.74,-5.09 25.49,-6.4 34.39,-7.43 70.93,-7.15 108.89,-1.02 75.52,13.68 157.09,56.15 225.48,122.93 33.99,33.44 64.86,72.41 88.95,116.21 12.1,21.92 22.54,44.92 30.47,68.95 4.46,11.99 7.21,24.32 10.44,36.71l2.03 9.38 1.02 4.72 0.52 2.35c0.35,3.51 0.17,-2.17 0.31,-0.41l2.95 24.11zm-449.34 509.24c-34.88,4.07 -70.41,5.35 -106.02,3.17 -35.63,-1.4 -71.32,-6.86 -106.58,-14.65l-26.44 -6.04 -26.18 -7.65 -13.07 -3.94 -12.07 -4.48 -27.08 -10.1c-31.05,-13.91 -63.37,-29.84 -92.07,-51.19 -28.79,-20.76 -55.85,-44.18 -78.37,-71.66 -22.85,-27.06 -43.48,-56.1 -59.42,-88 -16.45,-31.55 -29.21,-65.14 -38.05,-100 -5.27,-17.1 -7.77,-35.19 -11.56,-52.72 -2.06,-18.09 -5.46,-35.76 -6.06,-54.07 -10.45,-145.74 28.7,-295.13 92.72,-433.03 32.34,-69.15 71.61,-135.79 115.48,-199.98 21.99,-32.1 45.05,-63.68 69.63,-94.29 26.09,-33.08 52.24,-66.2 78.44,-99.42 3.27,-4.27 6.53,-8.62 9.81,-12.91 20.74,83.27 42.06,165.38 63.94,246.4 -2.34,1.4 -4.52,2.82 -7.06,4.34l-18.59 11.48c-11.45,8.15 -22.98,15.68 -33.75,24.26 -86.66,68.27 -144.34,157.29 -169.89,242.76 -26.74,85.57 -25.41,166.02 -11.09,231.24 14.84,65.47 42.91,116.58 73.56,150.17 30.09,34.41 61.59,50.25 82.38,57.91 5.29,1.77 9.92,3.35 13.88,4.69 4,0.78 7.35,1.46 10.02,1.95 5.4,1.02 8.12,1.57 8.12,1.57 0,0 -2.17,-1.74 -6.45,-5.16 -4.35,-3.31 -10.81,-8.61 -17.77,-15.81 -14.13,-14.59 -32.61,-38.65 -45.24,-73.46 -12.88,-34.51 -20.51,-79.68 -16.31,-131.21 3.64,-51.35 19.46,-108.97 50.21,-163.5 31.13,-54.39 77.91,-104.57 140.71,-140.99l2.67 -1.54c19.62,67.87 39.67,134.93 60.19,200.82 43.66,142.17 88.58,279.6 132.27,412.3 21.82,66.34 43.27,131.52 64.33,195.5 1.19,3.72 2.31,7.33 3.48,11.09 -45.06,18.05 -93.15,30.58 -142.76,36.13zm-301.91 -2060.6c-11.96,-81.79 -22.21,-164.19 -29.81,-246.87 -7.7,-82.63 -12.22,-165.8 -10.05,-247.68 1.11,-40.82 3.78,-81.43 9.64,-120.07 5.72,-38 15.53,-76.51 29.61,-100.08 4.65,-8.04 9.24,-12.15 11.5,-13.65l3.09 -0.52c-4.38,0.78 -0.69,0.36 -1.45,0.57 1.02,-0.08 2.49,0.17 4.24,0.44 3.53,0.74 8.16,1.85 13.62,4.4 22.44,9.26 49.29,33.82 70.81,62 43.95,57.86 73.97,131.81 94.29,207.31 20.08,75.97 30.44,155.67 36.08,234.97l1.66 28.86 1.11 32.38c0,17.86 0.12,38.2 -0.69,56.73 -2.07,37.68 -6.39,74.24 -14.59,109.78 -15.53,71.1 -45.91,139.97 -83.65,208.74 -23.09,41.02 -48.5,81.96 -75.13,122.82 -22.26,-112.02 -42.92,-225.39 -60.28,-340.12zm10.1 -727.41l0.52 -0.08 -0.52 0.08zm2.17 -1.45l-1.27 0.41 1.27 -0.41zm873.86 2051.93c-13.45,-34.56 -29.64,-67.6 -49.1,-97.95 -19.1,-30.58 -40.08,-59.56 -63.96,-85.43 -93.59,-104.71 -219.55,-174.98 -352.71,-191.41 -33.12,-4.18 -66.49,-5.04 -99.13,-2.49 -32.59,3.32 -64.6,8.64 -94.81,18.14 -8.21,2.26 -16.2,4.92 -24.09,7.81 -24.35,-98.47 -48.16,-198.6 -71.22,-300.16 78.38,-106.88 152.72,-219.04 214.41,-347.22 39.85,-84.34 74.87,-177.13 89.23,-276.29 7.74,-49.29 10.1,-99.07 9.3,-147.67 -0.66,-24.58 -2.26,-47.47 -4.24,-72.73l-3.41 -32.21 -4.61 -35.57c-12.96,-92.3 -36.68,-182.99 -72.59,-270.28 -35.93,-87.06 -82.6,-171.14 -151.15,-244.07 -17.28,-18.2 -36.03,-35.59 -57.53,-51.44 -21.48,-15.79 -45.37,-30.63 -74.84,-40.85 -14.54,-5.18 -31.04,-8.84 -48.84,-10.01 -8.98,-0.54 -18.17,-0.44 -27.84,0.85 -3.41,0.46 -2.43,0.09 -9.42,1.32l-3.94 0.88c-3.94,0.85 -13.65,3.48 -17.64,5.27 -20.6,7.8 -37.15,20.56 -49.44,33.53 -12.44,13.12 -21.2,26.63 -28.18,39.65 -26.44,52.29 -32.96,99.4 -38.68,145.53 -4.84,46.04 -5.66,90.75 -4.94,134.85 5.04,176.04 29.14,344.6 57.99,510.19 25.01,145.62 54.16,288.28 85.48,428.4 -42.35,60.6 -86.28,121.02 -129.52,181.13 -25.03,34.61 -50.05,67.68 -75.19,103.45 -26.3,37.02 -51.38,74.9 -74.38,114.01 -46.18,78.14 -84.55,160.83 -114.01,246.45 -29.96,85.37 -49.93,174.21 -57.86,264.09 -8.35,89.69 -4.57,180.53 14.36,268.14 4,21.92 10.73,43.46 16.39,64.92 7.43,21.18 13.61,42.45 22.82,62.88 16.34,41.35 38.34,80.25 62.6,116.93 48.47,73.72 114.56,133.76 187.31,177.02l27.58 15.64 28.46 13.53c18.31,9.34 39.76,16.35 59.1,23.98l27.62 8.41 15.25 4.59 14.71 3.48 29.21 7.13 29.55 5.66c78.67,14.27 158.62,16.85 236.18,7.69 53.85,-6.28 106.54,-18.34 157.32,-35.27 11.02,35.25 21.83,70.26 32.19,104.85 18.85,61.74 34.95,122.85 49.38,182.64 14.16,59.85 26.47,118.62 33.07,176.2 3.32,28.77 5.49,57.14 5.61,84.96 -0.06,6.7 0.32,14.49 -0.07,20.19l-1.2 21.29c-1.64,13.05 -2.92,25.55 -5.87,38.57 -10.1,51.56 -32.35,98.54 -62.34,136.58 -30.47,37.7 -68.37,66.37 -109.35,83.69l-15.53 5.84 -3.86 1.51 -1.32 0.48 -2.17 0.66 -8.69 2.66c-10.56,2.99 -20.36,5.24 -31.19,7.1 -21.07,3.48 -41.98,5.18 -62.22,3.81 -20.2,-1.38 -39.6,-4.9 -57.74,-10.28 -18,-5.97 -34.47,-13.96 -49.15,-23.21 -29.2,-19.18 -50.32,-44.26 -62.6,-71.05 -6.48,-13.17 -10.39,-27.14 -13.1,-40.72 -1.49,-6.7 -2.4,-13.61 -3,-20.31l-0.57 -10.12c0.81,2.82 0.16,-0.12 0.26,0.08l-0.14 -1.62 -0.34 -3.21 -0.63 -6.35c0.4,-9.76 0.54,-23.65 2.89,-34.45 2.06,-11.27 5.01,-21.77 8.52,-31.19 4.69,-12.08 10.45,-21.86 16.59,-29.89 29.92,15.6 64.81,22.41 100.74,17.06 90.36,-13.45 152.72,-97.6 139.27,-187.98 -13.45,-90.38 -96.53,-155.95 -187.14,-144.21 -64.58,8.38 -128,36.51 -179.48,109.29 -41.19,58.17 -68.92,136.55 -67.18,215.08 0.16,19.68 1.92,39.74 5.52,59.92 3.87,20.69 8.24,39.23 16.03,62.28 14.12,36.76 37.23,78.18 68.1,112.79 31.18,34.96 71.38,64.34 116.87,82.6 22.56,9.49 46.42,16.43 70.97,20.29 24.43,4.46 49.56,6.2 74.9,5.21 25.31,-0.97 50.87,-4.32 76.14,-10.53 12.3,-3.01 25.61,-7.15 37.97,-11.7l8.48 -3.25 5 -2.03 4.58 -2.06 18.34 -8.29c23.91,-12.45 47.18,-27.07 68.49,-44.93 21.04,-18.08 40.35,-38.76 57.21,-61.63 32.76,-46.37 56.23,-101.02 65.66,-159.67 2.74,-14.37 3.92,-29.95 5.13,-45.07l0.46 -21.35c0.32,-8.58 -0.29,-15.11 -0.4,-22.8 -0.83,-29.7 -3.81,-59.39 -7.96,-89.17 -16.21,-119.27 -49.41,-239.78 -84.12,-364.93 -10.22,-35.67 -20.63,-71.87 -31.19,-108.34 80.13,-31.82 154.39,-76.53 217.84,-134.12 56.24,-51.38 104.41,-112.37 138.64,-181.1 17.59,-34.14 30.88,-70.44 40.75,-107.53 5.19,-18.56 8.81,-37.36 11.96,-56.29 1.9,-9.15 2.46,-20.06 3.63,-30.13 1.03,-10.13 2.07,-21.18 2.27,-28.38l1.25 -24.29 -1.03 -31.9c-1.11,-19.28 -2.95,-38.6 -6.52,-57.33 -6.15,-37.79 -16.39,-74.28 -30.2,-108.69z"/>
  <path class="fil7" d="M8030.19 6544.51c-53.96,46.47 -118.07,42.65 -142.98,-8.55 -24.91,-51.22 -1.23,-130.68 52.73,-177.17 53.96,-46.46 118.07,-42.6 142.97,8.58 24.91,51.2 1.23,130.66 -52.73,177.13zm93.93 -205.41l-1.84 -2.2 2.31 2.7 -366.04 -743.37 -33.52 28.78 319.77 652.89c-38.43,-7.54 -84.71,3.88 -124.83,38.43 -73.8,63.59 -104.54,175.63 -67.8,251.16 36.74,75.53 126.68,83.28 200.47,19.71 73.18,-63.04 108.54,-166.32 68.41,-251.91l1.84 -1.63 1.23 5.44z"/>
  <path class="fil8" d="M7842.63 4924.06c-28.13,10.87 -62.88,12.7 -79.48,12.9 15.99,-55.33 36.44,-87.69 65.34,-104.2 11.99,-6.84 25.52,-10.61 38.28,-10.61 21.37,0 36.59,10.04 38.74,25.59 3.69,27.31 -24.44,61.54 -62.87,76.31zm88.24 -85.54c-3.38,-25 -25.98,-41.14 -57.65,-41.14 -17.83,0 -36.13,5.11 -53.19,14.82 -12.61,7.19 -22.9,16.4 -32.28,26.67l86.4 -319.09 -23.06 0 -108.69 423.25 -0.16 -0.63c-0.61,2.44 -4,4.57 -4.61,6.96l-4.31 11.48 11.38 2.69c0,0 3.84,2.07 9.99,2.07l-0.15 0c20.29,0 58.73,-3.9 92.55,-16.88 51.96,-20.02 89.17,-70.53 83.78,-110.21z"/>
  <path class="fil9" d="M6921.76 6903.05l-11.53 -0.25 4.46 -11.81c0.61,-2.4 4,-5.18 4.61,-7.62l0.15 -0.66 70.87 -278.12c7.53,-1.98 15.22,-4 22.75,-6.06l-48.27 180.02c9.22,-10.27 19.68,-16.88 32.28,-24.09 16.91,-9.72 35.36,-14.8 53.19,-14.8 31.67,0 54.27,16.14 57.65,41.13 5.38,39.68 -31.82,87.59 -83.94,107.62 -33.67,12.98 -72.1,14.27 -92.39,14.27l0 0c-6.15,0 -9.84,0.37 -9.84,0.37zm121.91 -138.62c-12.61,0 -26.29,3.77 -38.28,10.6 -28.75,16.5 -49.2,48.88 -65.34,104.2 16.6,-0.2 51.35,-2.03 79.64,-12.9 38.28,-14.77 66.57,-49.01 62.88,-76.31 -2.15,-15.55 -17.37,-25.59 -38.9,-25.59zm-33.36 -238.28l17.68 -69.3 23.06 0 -18.29 68.17c-7.38,0.41 -14.91,0.78 -22.45,1.14z"/>
  <path class="fil10" d="M6990.33 6604.59l9.84 -38.36c7.23,-0.34 14.6,-0.71 21.83,-1.11l-8.92 33.41c-7.53,2.06 -15.22,4.07 -22.75,6.06z"/>
  <path class="fil11" d="M7000.17 6566.23l10.15 -40.08c7.53,-0.35 15.07,-0.73 22.45,-1.14l-10.76 40.11c-7.23,0.4 -14.6,0.77 -21.83,1.11z"/>
  <path class="fil12" d="M11054.77 600.72c-28.29,10.87 -63.03,12.7 -79.64,12.88 16.14,-55.31 36.44,-87.68 65.34,-104.18 11.99,-6.84 25.52,-10.61 38.28,-10.61 21.37,0 36.74,10.04 38.74,25.6 3.69,27.3 -24.44,61.54 -62.72,76.31zm88.09 -85.54c-3.38,-25 -25.98,-41.14 -57.65,-41.14 -17.83,0 -36.13,5.1 -53.19,14.8 -12.61,7.21 -22.91,18.11 -32.13,28.38l86.24 -317.39 -23.06 0 -108.69 421.56 0 -1.49c-0.77,2.44 -4,4.15 -4.61,6.55l-4.46 11.25 11.53 4.31c0,0 3.69,3.66 9.84,3.66l-0.16 0c20.45,0 58.88,-5.6 92.55,-18.57 51.96,-20.03 89.32,-72.24 83.78,-111.92z"/>
  <path class="fil13" d="M9066.98 2155.03c-65.8,0 -130.83,44.46 -145.43,99.34 -14.45,54.86 27.21,99.33 93.01,99.33 65.8,0 130.83,-44.47 145.43,-99.33 14.45,-54.88 -27.21,-99.34 -93.01,-99.34zm-8.45 31.9c48.12,0 79.33,30.26 69.49,67.44 -9.84,37.18 -57.04,67.4 -105,67.4 -48.12,0 -79.33,-30.22 -69.49,-67.4 9.84,-37.19 56.88,-67.44 105,-67.44z"/>
  <path class="fil14" d="M3345.65 3602.81c-111.04,-90.2 -96.59,-219.61 -96.36,-220.47l0.97 -0.18 -36.33 0 -178.42 684.05c-23.48,-29.87 -64.68,-49.97 -116.06,-49.97 -94.51,0 -188.11,63.29 -208.94,142.11 -20.81,78.79 40.42,135.78 134.97,135.78 169.26,0 222.62,-147.45 222.62,-147.45l158.06 -629.63c12.69,34.65 37.49,75.7 94.01,128.37 111.83,104.27 -19.88,212.69 -19.88,212.69 99.75,-42.79 152.52,-168.3 45.37,-255.3z"/>
  <path class="fil15" d="M4406 4964.95c-35.65,0 -63.23,-20.23 -69.14,-57.5 -8.38,-53.04 30.8,-116.98 87.77,-142.1 16.47,-7.27 32.49,-10.85 47.2,-10.85 12.94,0 24.89,2.78 35.22,8.28l-75.94 -463.34 21.92 -9.66 1.08 4c0.08,0.57 27.38,86.05 118.28,110.89 87.71,23.96 89.26,113.6 40.51,165.91 0,0 50.56,-100.4 -44.6,-133.52 -48.05,-16.71 -73.92,-34.9 -90.8,-52.42l72.1 421.39c0,0 6.93,102.85 -95.09,147.83 -16.93,7.47 -33.43,11.09 -48.52,11.09z"/>
  <path class="fil16" d="M8543.51 4237.39l-6.3 -9.77c-0.77,-4.09 -1.54,-8.19 -2.31,-12.3 6.76,-3.55 69.64,-39.08 86.55,-115.06 6.46,13.45 12.76,26.92 19.22,40.42 -6.31,15.6 -13.37,27.47 -20.6,37.12l32.74 -11.28c4.61,9.79 9.22,19.57 13.68,29.39l-122.99 41.46zm583.58 -0.59c-45.05,0 -95.32,-26.52 -122.68,-68.47 -18.45,-28.32 -23.98,-57.21 -15.99,-80.89l-56.73 19.15c-7.07,-9.65 -13.99,-19.31 -21.06,-28.93l113.61 -39.22c0,0 11.22,-2.63 28.6,-2.63 34.28,0 92.24,10.41 132.67,72.52 34.13,52.16 24.29,106.74 -26.75,123.6 -9.99,3.31 -20.6,4.87 -31.67,4.87zm-445.06 -46.1c-4.46,-9.86 -9.07,-19.72 -13.68,-29.53l221.99 -76.51c7.07,9.55 14.14,19.14 21.21,28.73l-229.52 77.32zm-33.67 -72.27c-7.53,-15.76 -14.91,-31.5 -22.45,-47.17 9.38,-53.24 48.27,-77.54 89.94,-77.54 22.44,0 45.81,7.02 65.8,20.37 0,0 -17.53,-5.47 -39.51,-5.47 -32.44,0 -74.72,11.94 -85.01,71.1 -2.46,14.65 -5.53,27.44 -8.76,38.71z"/>
  <path class="fil17" d="M8537.21 4227.63l-6.76 -10.3 3.84 -1.69c0,-0.02 0.15,-0.11 0.61,-0.31 0.77,4.11 1.53,8.21 2.31,12.3z"/>
  <path class="fil18" d="M8666.5 4195.93c-4.46,-9.82 -9.07,-19.6 -13.68,-29.39l15.53 -5.36c4.61,9.81 9.22,19.68 13.68,29.53l-15.53 5.23zm-25.82 -55.24c-6.46,-13.5 -12.76,-26.97 -19.22,-40.42 1.39,-6.16 2.31,-12.61 3.08,-19.32 0.31,-3.32 0.77,-6.56 1.38,-9.69 7.53,15.67 14.91,31.41 22.45,47.17 -2.46,8.19 -4.92,15.57 -7.69,22.26z"/>
  <path class="fil19" d="M8911.55 4113.39c-7.07,-9.59 -14.14,-19.18 -21.21,-28.73l20.29 -6.99c7.07,9.62 13.99,19.28 21.06,28.93l-20.14 6.79z"/>
  <path class="fil20" d="M8787.49 752.61c-35.66,0 -63.34,-20.23 -69.18,-57.49 -8.45,-53.04 30.75,-116.98 87.78,-142.1 16.45,-7.27 32.44,-10.85 47.2,-10.85 12.91,0 24.91,2.78 35.21,8.27l-22.6 -137.73c10.61,-4.79 21.21,-9.56 31.67,-14.25l33.52 195.24c0,0 6.92,102.85 -95.16,147.83 -16.91,7.47 -33.36,11.08 -48.43,11.08zm72.71 -374.45l-47.66 -291.05 21.99 -9.66 1.08 4c0,0.57 27.36,86.05 118.22,110.89 63.95,17.47 82.09,69.83 68.41,117.18 -5.23,2.03 -10.3,4.06 -15.37,6.1 4,-31.5 -3.07,-72.05 -57.19,-90.89 -47.97,-16.71 -73.79,-34.91 -90.7,-52.42l32.74 191.72c-10.45,4.66 -21.06,9.37 -31.52,14.13zm134.06 -19.91c0,0 0.31,-0.37 0.61,-1.05 0.15,-0.09 0.46,-0.18 0.61,-0.29 -0.31,0.44 -0.77,0.89 -1.23,1.34z"/>
  <path class="fil21" d="M8503.69 4988.82c-73.94,27.43 -132.37,-16.32 -132.67,-16.66l-0.92 -1.11 -10.15 17.27 275.8 277.08c-20.76,2.77 -41.36,16.99 -55.81,41.37 -26.44,44.89 -22.44,107.22 9.23,139.21 31.52,31.98 75.79,18.96 102.39,-25.93 47.5,-80.34 -7.53,-146.99 -7.53,-146.99l-254.59 -251.56c19.99,3.69 46.43,3.41 87.32,-8.62 80.86,-23.86 95.47,69.07 95.47,69.07 7.53,-59.37 -37.2,-119.61 -108.54,-93.12z"/>
  <path class="fil22" d="M9364.46 4689.68c-87.17,69.27 -184.95,36.11 -185.56,35.79l-1.53 -1.11 -6.15 27.64 491.95 251.29c-26.75,12.81 -48.12,40.94 -56.73,80.02 -15.99,71.93 16.76,153.86 73.33,182.99 56.42,29.1 110.22,-7.84 126.21,-79.77 28.44,-128.72 -74.56,-194.14 -74.56,-194.14l-452.29 -226.28c28.44,-3.81 63.96,-15.79 113.46,-49.89 98.24,-67.49 158.5,50.98 158.5,50.98 -15.84,-83.12 -102.39,-144.4 -186.63,-77.53z"/>
  <path class="fil23" d="M4015.6 5190.83c-6.51,-8.84 -14.65,-17.43 -24.67,-25.58 -73.65,-59.82 -74.05,-143.91 -72.61,-167.12l11.5 -44.11c9.98,26.66 31.66,58.17 74.92,98.51 56.76,52.9 33.58,107.17 10.87,138.3zm27.66 -284.06c56.73,52.9 33.55,107.2 10.86,138.32 -6.51,-8.86 -14.64,-17.44 -24.66,-25.58 -77.1,-62.6 -73.96,-151.78 -72.42,-169.96l10.97 -42.15c9.84,26.86 31.52,58.62 75.26,99.37zm16.91 147.45c56.96,-42.24 84.79,-122.4 13.3,-180.45 -85.91,-69.8 -66.72,-169.31 -66.54,-170l0.75 0.51 -44.18 0 -138.09 528.82c-18.17,-23.11 -50.07,-38.99 -89.83,-38.99 -73.18,0 -145.6,48.84 -161.73,109.83 -16.12,61.02 31.28,104.77 104.47,104.77 140.2,0 171.26,-114.27 171.26,-114.27l46.43 -193.77c10.15,26.47 29.64,57.73 72.42,97.62 86.57,80.71 -13.99,164.6 -13.99,164.6 64.71,-27.75 105,-100.44 67.76,-162.93 46.25,-34.28 69.06,-93.58 37.96,-145.74z"/>
  <path class="fil24" d="M10076.71 827.65c-139.75,-113.44 -134.06,-275.03 -131.29,-307.93l19.99 -76.28c17.84,48.61 57.04,106.13 136.21,179.98 102.85,95.84 60.88,194.17 19.68,250.57 -11.68,-16.03 -26.44,-31.58 -44.58,-46.33zm63.65 -264.02c-155.74,-126.45 -137.13,-312.05 -136.83,-313.3l1.39 -4.37 -47.66 0 -250.28 963.34c-32.89,-41.9 -90.7,-67.97 -162.64,-67.97 -132.52,0 -263.81,89.8 -293.02,200.3 -29.21,110.49 56.73,190.69 189.25,186.45 214.31,-6.84 277.95,-210.7 277.95,-210.7l169.57 -609c17.98,48.29 61.34,105.71 139.74,178.78 156.81,146.21 -21.37,298.4 -21.37,298.4 117.3,-50.29 189.25,-181.93 121.76,-295.13 103.15,-76.58 141.59,-221.69 12.15,-326.81z"/>
  <path class="fil25" d="M8388.24 3176.32c-73.49,-59.68 -70.57,-144.71 -69.03,-162.02l10.45 -40.12c9.38,25.56 29.98,55.83 71.8,94.7 53.96,50.41 31.97,102.16 10.3,131.82 -6.15,-8.44 -13.99,-16.62 -23.52,-24.38zm33.51 -138.91c-81.94,-66.54 -72.1,-162.57 -71.95,-162.57l0.61 0 -25.06 0 -131.6 504.57c-17.37,-22.03 -47.66,-36.88 -85.63,-36.88 -69.8,0 -138.82,46.66 -154.2,104.8 -15.37,58.14 29.83,100.03 99.62,97.82 112.69,-3.61 146.2,-110.98 146.2,-110.98l89.17 -320.52c9.53,25.41 32.44,55.57 73.64,94.02 82.55,76.93 -11.22,157 -11.22,157 61.65,-26.47 99.47,-95.75 63.96,-155.3 54.27,-40.29 74.56,-116.65 6.45,-171.95z"/>
  <path class="fil26" d="M2599.66 3259.16l-92.24 0 24.36 -92.24 92.24 0 -24.36 92.24zm131.98 -92.24l8.12 -30.75 -76.87 0 24.38 -92.24 -30.74 0 -24.38 92.24 -92.24 0 16.25 -61.49 -30.75 0 -16.25 61.49 -76.86 0 -8.12 30.75 76.87 0 -24.37 92.24 -76.87 0 -4.06 15.37 76.87 0 -28.44 107.62 30.74 0 28.44 -107.62 92.24 0 -20.32 76.87 30.75 0 20.32 -76.87 76.87 0 4.06 -15.37 -76.87 0 24.37 -92.24 76.86 0z"/>
  <path class="fil27" d="M9767.39 3908.26c-23.99,-11.23 -50.27,-13.36 -74.26,-8.47 -3.07,0.58 -5.99,1.21 -9.06,2.1l-4.31 1.22 -2.61 0.75 -1.85 0.66 -4 1.37 -4.61 1.84c-3.08,1.25 -5.84,2.57 -8.61,4 -11.07,5.78 -21.52,13.08 -30.59,21.43 -18.45,16.66 -31.98,36.79 -41.51,55.51 -9.53,18.91 -14.45,37 -16.76,51.78 -2.46,14.85 -2.31,26.5 -2,34.3 0.31,3.9 0.61,6.84 0.92,8.84l0.15 1.56c0.15,9.41 1.69,18.76 4.92,27.49 12.45,33.96 45.5,45.44 73.94,25.64 28.44,-19.83 41.2,-63.42 28.75,-97.39 -11.84,-32.25 -42.43,-44.18 -69.64,-28.4 0.92,-1.67 1.84,-3.35 2.92,-5.06 8.61,-14.42 20.14,-28.81 34.44,-39.68 14.3,-10.99 31.36,-17.95 50.12,-20.19 18.75,-2.4 37.97,0.29 55.96,8.99 9.07,4.43 17.68,10.15 25.98,17.33 7.99,7.32 15.68,15.79 22.6,25.43 13.99,19.28 24.75,43.29 32.13,69.42 3.69,13.15 6.45,26.63 8.3,40.46 1.84,14.35 2.77,27.92 2.31,42.19 -0.31,14.11 -1.54,28.29 -3.84,42.24 -2.46,13.99 -5.84,27.72 -9.99,41.02 -8.15,26.55 -19.37,51.47 -32.13,73.27 -12.76,21.92 -27.06,41 -41.2,57.17 -14.3,15.99 -28.44,29.27 -41.81,39.7 -13.22,10.41 -25.37,18.4 -35.51,24.24 -10.3,5.61 -18.45,9.73 -24.29,12.18 -5.69,2.37 -8.76,3.64 -8.76,3.64 0,0 3.07,-0.63 9.07,-1.83 5.69,-1.31 14.45,-3.49 25.37,-7.46 10.76,-4.14 23.98,-9.9 38.58,-18.76 14.6,-8.79 30.74,-20.25 47.2,-35.51 16.14,-15.36 33.21,-33.78 48.73,-56.59 7.69,-11.27 15.22,-23.55 22.14,-36.71 3.53,-6.5 6.76,-13.42 9.99,-20.35 3.08,-7.1 6.15,-14.3 8.92,-21.75 11.07,-29.75 18.76,-62.83 21.06,-96.81 1.23,-16.83 0.77,-34.3 -0.77,-50.52 -1.39,-16.65 -4,-33.18 -7.84,-48.95 -7.38,-31.73 -19.83,-61.14 -36.44,-85.94 -16.45,-24.89 -37.97,-44.46 -62.11,-55.44z"/>
  <path class="fil28" d="M9908.21 3978.97c17.53,-12.76 25.06,-39.99 16.76,-60.8 -8.14,-20.8 -28.9,-27.3 -46.27,-14.54 -17.37,12.78 -24.91,39.99 -16.76,60.8 8.15,20.82 28.91,27.32 46.28,14.55z"/>
  <path class="fil29" d="M9926.97 4026.53c-17.53,12.77 -25.06,40 -16.76,60.81 8.14,20.8 28.9,27.31 46.27,14.53 17.37,-12.76 24.91,-39.99 16.76,-60.79 -8.15,-20.81 -28.91,-27.32 -46.28,-14.56z"/>
  <path class="fil30" d="M2990.2 5312.09c-0.24,0.6 -20.12,48.35 -61.23,91.89 0.24,-6.76 -0.35,-13.51 -1.95,-20 -8.1,-32.56 -37.74,-46.32 -66.17,-30.7 -28.47,15.61 -44.95,54.67 -36.86,87.24 0.57,2.24 1.25,4.38 2,6.46 2.23,8.93 6.17,16.85 11.73,22.89 7.3,7.93 28.29,23.48 65.49,-3.18 37.93,-27.2 65.71,-62.16 84.22,-90.77l-5.8 304.12 29.08 -5.21 8.26 -433.39 -28.77 70.65z"/>
  <path class="fil31" d="M10776.2 1981.77l0 -1.22 0.31 -0.72 138.67 -538.73 0 -0.14 2.77 -11.21 -432 50.92 -16.29 64.43 -108.23 417.15c-16.29,-20.79 -44.89,-34.08 -80.71,-34.08 -65.8,0 -130.83,44.41 -145.28,99.28 -14.61,54.85 27.52,99.53 93.31,99.53 65.18,0 128.37,-36.19 145.59,-97.69l5.53 0 -0.61 0.35 0 -1.21 0.15 -0.74 123.76 -486.4 369.58 -46.81 -109.61 419.68c-16.45,-20.79 -45.35,-33.98 -81.02,-33.98 -65.79,0 -131.14,44.45 -145.59,99.33 -14.45,54.85 27.21,100.44 93.01,100.44 65.34,0 128.06,-35.28 145.28,-96.77l1.54 0 -0.16 -1.4z"/>
  <path class="fil32" d="M5203.28 5716.51c-62.17,-19.28 -134.66,0.18 -169.48,53.78l-7.24 -2.24 3.53 -5.67 -0.1 0.17 3.47 1.32 -263.21 427.3 -367.2 -65.03 228.87 -368.49c9.46,24.69 33.07,45.78 67.23,56.39 62.86,19.5 138.31,-3.66 168.42,-51.76 30.1,-48.12 1.87,-100.13 -60.99,-119.62 -62.16,-19.3 -134.09,-0.55 -168.95,53.02l-3.47 -1.08 2.6 -4.14 -0.11 0.17 1.55 -0.86 -293.92 474.98 0.03 0 -5.2 9.96 428.25 79.16 34.71 -56.36 227.44 -366.86c9.45,24.7 32.85,45.83 67,56.42 62.85,19.49 137.1,-1.89 167.22,-50 30.08,-48.1 2.43,-101.08 -60.43,-120.57z"/>
  <path class="fil33" d="M6315.66 5648.71l8.96 -34.34 441.05 -55.38 -8.18 31.49 -441.84 58.24zm328.3 486.94l0.06 0.05 0.08 4.07 170.35 -636.08 1.54 0 4.46 -17.98 -513.29 58.63 -19.06 74.84 -129.03 496.53c-19.44,-24.75 -53.34,-40.77 -95.84,-40.79 -78.27,-0.03 -155.66,52.64 -172.94,117.88 -17.26,65.23 32.88,118.32 111.15,118.33 77.33,0.02 152.12,-38.77 172.97,-115.64l-1.67 0 -0.85 0.32 0.97 -1.7 0.54 -1.11 132.07 -505.68 441.97 -58.4 -111.53 429.32c-19.41,-24.74 -53.34,-40.43 -95.88,-40.45 -78.25,-0.03 -155.66,52.84 -172.92,118.08 -17.25,65.23 32.61,116.01 110.86,116.04 77.33,0.02 151.86,-41.05 172.69,-117.91l0.03 0 -6.72 1.64z"/>
  <path class="fil34" d="M3471.61 6417.34c-18.94,0 -35.66,-10.25 -43.63,-29.24 -13.31,-31.78 1.66,-77.14 33.36,-101.48 12.99,-9.98 26.87,-14.69 39.6,-14.69 4.14,0 8.15,0.49 11.96,1.47l-102.16 -241.02 -15.34 -35.91 190.08 -182.81 4.86 9.98 -0.66 0.51 125.08 302.5 0.49 -1.95 0 0.03c15.5,37.62 -0.78,78.87 -32.1,102.95 -13.79,10.59 -28.16,15.9 -41.12,15.9 -16.82,0 -31.22,-8.97 -38.74,-26.92 -13.31,-31.79 1.59,-77.25 33.27,-101.6 13.08,-10.04 26.98,-14.87 39.72,-14.87 4.04,0 7.97,0.48 11.7,1.43l-88.43 -208.49 -160.67 161.3 104.02 246 0.42 1 0.71 1.71 1.35 1.06 0.68 -0.52c10.32,30.87 -3.83,75.16 -35.13,99.22 -12.78,9.81 -26.53,14.46 -39.31,14.46zm113.49 -558.3l-161.31 159.68 7.06 16.68 160.76 -161.08 -6.5 -15.28z"/>
  <path class="fil35" d="M9480.68 3121.1c-9.53,0 -19.22,-1.23 -28.6,-3.29 -39.05,-8.53 -58.88,-36.24 -43.05,-66.91 12.91,-25.51 45.81,-42.19 79.02,-42.19 6.76,0 13.37,0.68 19.99,2.12 21.21,4.61 36.44,16.18 43.51,30.64l102.23 -202.05 -226.76 -18.79 -120.99 238.15 -0.46 0.95 -0.92 1.65 0 1.7 0.92 0.19c-14.14,23.07 -46.12,39.22 -78.71,39.22 -6.61,0 -13.22,-0.66 -19.83,-2.09 -39.05,-8.53 -57.8,-42.24 -42.12,-72.92 13.07,-25.49 45.81,-42.08 78.87,-42.08 6.76,0 13.53,0.69 20.14,2.12 21.21,4.66 36.44,16.42 43.35,30.87l118.38 -233.49 17.53 -34.9 262.27 27.41 -4.46 10.07 -0.77 -0.22 -149.12 287.7 0.31 -0.26c0,-0.01 0,-0.01 0,-0.03l0 0.03c-14.14,34.78 -41.51,46.38 -70.71,46.38zm-36.13 -335.02l-8.3 16.16 226.76 19.02 7.53 -14.82 -225.99 -20.36z"/>
  <path class="fil36" d="M8281.24 1367.18l9.23 44.68 -476.27 316.23 -8.61 -40.89 475.65 -320.01zm-12.15 -930.63c-89.01,44.28 -151.74,136.04 -127.91,244.28l-1.38 0.69 -4.92 -15.87 -1.39 -2.66 0 -1.41 137.29 656.64 -475.65 319.63 -117.3 -558.68c36.59,17.36 84.71,15.81 133.59,-8.52 90.25,-44.79 149.13,-150.01 131.6,-235.05 -17.37,-85.04 -102.69,-110.92 -192.78,-66.15 -89.17,44.28 -147.43,144.39 -130.21,238.86l4 -1.99 -2.46 -9.1 -0.46 -0.66 0.46 6.14 175.87 844.39 -0.15 0.09 0.46 9.7 555.29 -367.85 -22.14 -100.7 -136.06 -647.07c36.59,17.35 84.56,15.6 133.44,-8.72 90.24,-44.77 151.12,-143.99 133.75,-229.07 -17.53,-85.01 -102.7,-111.7 -192.94,-66.95z"/>
  <path class="fil37" d="M5908.97 5556.13l-0.21 -4.27 0.06 -0.05 -77.2 -370.7 -1.19 0.58c-7.57,-41.7 17.97,-85.88 57.31,-105.4 12.96,-6.42 25.65,-9.56 37.15,-9.56 23.85,0 42.55,13.44 47.74,38.76 7.72,37.51 -18.79,83.95 -58.57,103.71 -12.11,6.01 -24.41,8.87 -35.71,8.87 -8.86,0 -17.11,-1.75 -24.18,-5.12l49.81 246.53 206.08 -141.05 -68.12 -289.12 8.13 1.17 9.89 7.01 0.61 -0.32c-10.59,-47.75 17.1,-88.26 56.43,-107.78 12.86,-6.38 25.46,-9.47 36.92,-9.47 24.02,0 42.95,13.61 48.18,39.02 7.72,37.53 -19.19,81.31 -58.97,101.07 -12.19,6.04 -24.21,8.93 -35.28,8.93 -8.58,0 -16.57,-1.73 -23.62,-5.07l60.03 285.52 9.78 44.45 -245.07 162.31zm213.34 -216.09l-209.88 141.2 3.8 18.05 210.2 -139.55 -4.12 -19.71zm-80.37 -310.73l-0.15 -0.01 0 -0.61 0.15 0.63z"/>
 </g>
</svg>
