<?xml version="1.0" encoding="UTF-8"?>
<!DOCTYPE svg PUBLIC "-//W3C//DTD SVG 1.1//EN" "http://www.w3.org/Graphics/SVG/1.1/DTD/svg11.dtd">
<!-- Creator: CorelDRAW 2017 -->
<svg xmlns="http://www.w3.org/2000/svg" xml:space="preserve" width="0.734799in" height="0.594815in" version="1.1" style="shape-rendering:geometricPrecision; text-rendering:geometricPrecision; image-rendering:optimizeQuality; fill-rule:evenodd; clip-rule:evenodd"
viewBox="0 0 159.15 128.83"
 xmlns:xlink="http://www.w3.org/1999/xlink">
 <defs>
  <style type="text/css">
   <![CDATA[
    .str0 {stroke:#1D354D;stroke-width:7.22;stroke-linecap:round;stroke-linejoin:round;stroke-miterlimit:10}
    .str1 {stroke:#1D354D;stroke-width:5.29;stroke-linecap:round;stroke-linejoin:round;stroke-miterlimit:10}
    .str2 {stroke:#FFC300;stroke-width:5.29;stroke-linecap:round;stroke-linejoin:round;stroke-miterlimit:10}
    .fil0 {fill:none}
    .fil1 {fill:none;fill-rule:nonzero}
   ]]>
  </style>
 </defs>
 <g id="Layer_x0020_1">
  <metadata id="CorelCorpID_0Corel-Layer"/>
  <rect class="fil0" y="1.38" width="159.15" height="127.02"/>
  <g id="_1591479843808">
   <line class="fil1 str0" x1="70.69" y1="118.14" x2="31.34" y2= "118.14" />
   <path class="fil1 str0" d="M31.34 118.14c-4.78,0 -8.65,-3.87 -8.65,-8.65"/>
   <line class="fil1 str0" x1="22.69" y1="109.49" x2="22.69" y2= "12.26" />
   <path class="fil1 str0" d="M22.69 12.26c0,-4.78 3.87,-8.65 8.65,-8.65"/>
   <line class="fil1 str0" x1="31.34" y1="3.61" x2="127.81" y2= "3.61" />
   <path class="fil1 str0" d="M127.81 3.61c4.78,0 8.65,3.87 8.65,8.65"/>
   <line class="fil1 str0" x1="136.45" y1="13.82" x2="136.45" y2= "65.35" />
   <line class="fil1 str1" x1="40.41" y1="30.22" x2="118.74" y2= "30.22" />
   <line class="fil1 str1" x1="40.41" y1="54.29" x2="93.47" y2= "54.29" />
   <line class="fil1 str1" x1="40.41" y1="78.35" x2="66.48" y2= "78.35" />
   <line class="fil1 str2" x1="108.38" y1="109.56" x2="108.38" y2= "86.65" />
   <line class="fil1 str2" x1="119.83" y1="98.11" x2="96.93" y2= "98.11" />
   <path class="fil1 str1" d="M136.45 98.11c0,15.51 -12.57,28.08 -28.08,28.08 -15.51,0 -28.08,-12.57 -28.08,-28.08 0,-15.51 12.57,-28.08 28.08,-28.08 15.51,0 28.08,12.57 28.08,28.08z"/>
  </g>
  <rect class="fil0" x="16.06" y="1.38" width="127.02" height="127.02"/>
 </g>
</svg>
