<svg width="53" height="43" viewBox="0 0 53 43" version="1.1" xmlns="http://www.w3.org/2000/svg" xmlns:xlink="http://www.w3.org/1999/xlink">
<title>twitter-logo-silhouette</title>
<desc>Created using Figma</desc>
<g id="Canvas" transform="translate(-28763 4852)">
<g id="twitter-logo-silhouette">
<g id="Group">
<g id="Group">
<g id="Vector">
<use xlink:href="#path0_fill" transform="translate(28763 -4852)" fill="#0CD9FF"/>
</g>
</g>
</g>
</g>
</g>
<defs>
<path id="path0_fill" d="M 53 5.08758C 51.0493 5.95092 48.9562 6.53643 46.7571 6.79782C 49.0026 5.45476 50.7214 3.32448 51.5361 0.793883C 49.4298 2.03764 47.1048 2.94077 44.6275 3.43035C 42.6437 1.31659 39.8219 1.63663e-07 36.6922 1.63663e-07C 30.6877 1.63663e-07 25.8193 4.86268 25.8193 10.8567C 25.8193 11.7068 25.9153 12.5371 26.1008 13.331C 17.066 12.8778 9.05461 8.55435 3.69269 1.98471C 2.7554 3.58579 2.22219 5.45139 2.22219 7.44284C 2.22219 11.2106 4.1431 14.5351 7.05758 16.4801C 5.27576 16.4206 3.59994 15.931 2.13282 15.1172L 2.13282 15.2529C 2.13282 20.5125 5.88188 24.9021 10.853 25.9012C 9.94219 26.146 8.98178 26.2816 7.9882 26.2816C 7.28613 26.2816 6.60717 26.2121 5.94147 26.0798C 7.32579 30.3967 11.3399 33.5359 16.0957 33.6219C 12.3765 36.5329 7.68683 38.263 2.59319 38.263C 1.71557 38.263 0.851119 38.2101 4.11386e-12 38.1141C 4.81218 41.2005 10.5252 43 16.6654 43C 36.6658 43 47.5984 26.4536 47.5984 12.1038L 47.5619 10.698C 49.6981 9.17618 51.546 7.26422 53 5.08758Z"/>
</defs>
</svg>
